<?xml version="1.0" encoding="UTF-8" standalone="no"?>
<!DOCTYPE svg PUBLIC "-//W3C//DTD SVG 1.1//EN"
 "http://www.w3.org/Graphics/SVG/1.1/DTD/svg11.dtd">
<!-- Generated by graphviz version 2.38.0 (20140413.2041)
 -->
<!-- Title: G Pages: 1 -->
<svg width="303pt" height="159pt"
 viewBox="0.00 0.00 303.07 159.43" xmlns="http://www.w3.org/2000/svg" xmlns:xlink="http://www.w3.org/1999/xlink">
<g id="graph0" class="graph" transform="scale(1 1) rotate(0) translate(4 155.426)">
<title>G</title><style>.edge>path:hover{stroke-width:8}</style>
<polygon fill="white" stroke="none" points="-4,4 -4,-155.426 299.065,-155.426 299.065,4 -4,4"/>
<!-- khzwave_receiver -->
<g id="node1" class="node"><title>khzwave_receiver</title><style>.edge>path:hover{stroke-width:8}</style>
<ellipse fill="#ac4949" stroke="black" cx="154.27" cy="-21.2132" rx="39.6962" ry="21.4286"/>
<text text-anchor="middle" x="154.27" y="-24.2132" font-family="Helvetica,sans-Serif" font-size="10.00" fill="#ffffff">khzwave.</text>
<text text-anchor="middle" x="154.27" y="-13.2132" font-family="Helvetica,sans-Serif" font-size="10.00" fill="#ffffff">receiver</text>
</g>
<!-- khzwave_server -->
<g id="node2" class="node"><title>khzwave_server</title><style>.edge>path:hover{stroke-width:8}</style>
<ellipse fill="#ac4949" stroke="black" cx="48.2704" cy="-21.2132" rx="48.0418" ry="18"/>
<text text-anchor="middle" x="48.2704" y="-18.7132" font-family="Helvetica,sans-Serif" font-size="10.00" fill="#ffffff">khzwave.server</text>
</g>
<!-- khzwave_wfs -->
<g id="node3" class="node"><title>khzwave_wfs</title><style>.edge>path:hover{stroke-width:8}</style>
<ellipse fill="#b34c4c" stroke="black" cx="253.27" cy="-21.2132" rx="41.5911" ry="18"/>
<text text-anchor="middle" x="253.27" y="-18.7132" font-family="Helvetica,sans-Serif" font-size="10.00" fill="#ffffff">khzwave.wfs</text>
</g>
<!-- numpy -->
<g id="node4" class="node"><title>numpy</title><style>.edge>path:hover{stroke-width:8}</style>
<ellipse fill="#26d926" stroke="black" cx="239.27" cy="-133.426" rx="27.1572" ry="18"/>
<text text-anchor="middle" x="239.27" y="-130.926" font-family="Helvetica,sans-Serif" font-size="10.00" fill="#000000">numpy</text>
</g>
<!-- numpy&#45;&gt;khzwave_receiver -->
<g id="edge1" class="edge"><title>numpy&#45;&gt;khzwave_receiver</title><style>.edge>path:hover{stroke-width:8}</style>
<path fill="none" stroke="black" d="M239.27,-78.4264C229.796,-60.8093 212.111,-47.7887 195.315,-38.7409"/>
<polygon fill="#26d926" stroke="black" points="196.64,-35.4891 186.134,-34.119 193.492,-41.7416 196.64,-35.4891"/>
</g>
<!-- numpy&#45;&gt;khzwave_server -->
<g id="edge2" class="edge"><title>numpy&#45;&gt;khzwave_server</title><style>.edge>path:hover{stroke-width:8}</style>
<path fill="none" stroke="black" d="M239.27,-78.4264C210.062,-24.1148 164.154,-60.7458 105.27,-42.4264 100.627,-40.9819 95.7986,-39.3985 91.0035,-37.7737"/>
<polygon fill="#26d926" stroke="black" points="91.873,-34.3711 81.2783,-34.4118 89.586,-40.987 91.873,-34.3711"/>
<path fill="none" stroke="black" d="M243.249,-115.187C244.837,-104.298 245.11,-90.2855 239.27,-79.4264"/>
</g>
<!-- numpy&#45;&gt;khzwave_wfs -->
<g id="edge3" class="edge"><title>numpy&#45;&gt;khzwave_wfs</title><style>.edge>path:hover{stroke-width:8}</style>
<path fill="none" stroke="black" d="M239.27,-78.4264C234.269,-69.1258 235.725,-57.998 239.183,-48.1064"/>
<polygon fill="#26d926" stroke="black" points="242.473,-49.314 243.144,-38.7404 236.026,-46.5876 242.473,-49.314"/>
</g>
<!-- zmq -->
<g id="node5" class="node"><title>zmq</title><style>.edge>path:hover{stroke-width:8}</style>
<ellipse fill="#3333cc" stroke="black" cx="154.27" cy="-133.426" rx="27" ry="18"/>
<text text-anchor="middle" x="154.27" y="-130.926" font-family="Helvetica,sans-Serif" font-size="10.00" fill="#ffffff">zmq</text>
</g>
<!-- zmq&#45;&gt;khzwave_receiver -->
<g id="edge4" class="edge"><title>zmq&#45;&gt;khzwave_receiver</title><style>.edge>path:hover{stroke-width:8}</style>
<path fill="none" stroke="black" d="M154.27,-78.4264C151.123,-70.345 150.16,-61.1004 150.245,-52.474"/>
<polygon fill="#3333cc" stroke="black" points="153.746,-52.5527 150.792,-42.378 146.756,-52.1741 153.746,-52.5527"/>
</g>
<!-- zmq&#45;&gt;khzwave_server -->
<g id="edge5" class="edge"><title>zmq&#45;&gt;khzwave_server</title><style>.edge>path:hover{stroke-width:8}</style>
<path fill="none" stroke="black" d="M154.27,-78.4264C148.995,-64.8834 117.974,-49.402 90.8434,-38.1195"/>
<polygon fill="#3333cc" stroke="black" points="92.0401,-34.828 81.4577,-34.314 89.4098,-41.3151 92.0401,-34.828"/>
<path fill="none" stroke="black" d="M157.373,-115.134C158.541,-104.481 158.679,-90.744 154.27,-79.4264"/>
</g>
</g>
</svg>
