<?xml version="1.0" encoding="utf-8"?>
<!-- Generator: Adobe Illustrator 16.0.0, SVG Export Plug-In . SVG Version: 6.00 Build 0)  -->
<!DOCTYPE svg PUBLIC "-//W3C//DTD SVG 1.1//EN" "http://www.w3.org/Graphics/SVG/1.1/DTD/svg11.dtd">
<svg version="1.1" id="Capa_1" xmlns="http://www.w3.org/2000/svg" xmlns:xlink="http://www.w3.org/1999/xlink" x="0px" y="0px"
	 width="100px" height="100px" viewBox="0 0 100 100" enable-background="new 0 0 100 100" xml:space="preserve">
<g>
	<g>
		<path fill="#FFFFFF" d="M11.429,90.988h39.559V100H5.275c-0.806,0-1.465-0.275-1.978-0.824c-0.513-0.55-0.77-1.227-0.77-2.033
			v-70.22v-5.384v-0.33h0.11c0-0.146,0.073-0.293,0.22-0.439l20.66-20.33V0.11h0.659C24.249,0.037,24.322,0,24.396,0h5.275
			l0.22,0.11h40.44c0.806,0,1.465,0.256,1.978,0.769c0.514,0.513,0.771,1.172,0.771,1.978v30.549H64.18V9.011H30.659v17.912
			c0,0.733-0.33,1.099-0.989,1.099H11.429V90.988z M96.044,63.406H77.143v-19.01c0-0.953-0.476-1.429-1.429-1.429H62.418
			c-0.953,0-1.43,0.476-1.43,1.429v19.011h-19.01c-0.953,0-1.429,0.476-1.429,1.429v13.297c0,0.952,0.476,1.43,1.429,1.43h19.01
			v19.012c0,0.951,0.477,1.429,1.43,1.429h13.296c0.953,0,1.429-0.478,1.429-1.429V79.561h18.901c0.952,0,1.429-0.477,1.429-1.429
			V64.835C97.473,63.883,96.996,63.406,96.044,63.406z"/>
	</g>
</g>
</svg>
