<?xml version="1.0" encoding="utf-8"?>
<!-- Generator: Adobe Illustrator 16.0.0, SVG Export Plug-In . SVG Version: 6.00 Build 0)  -->
<!DOCTYPE svg PUBLIC "-//W3C//DTD SVG 1.1//EN" "http://www.w3.org/Graphics/SVG/1.1/DTD/svg11.dtd">
<svg version="1.1" id="Capa_1" xmlns="http://www.w3.org/2000/svg" xmlns:xlink="http://www.w3.org/1999/xlink" x="0px" y="0px"
	 width="477.436px" height="477.434px" viewBox="0 0 477.436 477.434" enable-background="new 0 0 477.436 477.434"
	 xml:space="preserve">
<g>
	<path fill="#FFFFFF" d="M181.948,147.937c-0.278,0-0.549,0.025-0.822,0.025v102.472h104.117
		C284.803,193.842,238.642,147.937,181.948,147.937z"/>
	<path fill="#FFFFFF" d="M460.358,396.113l-116.693-78.207v58.716h-54.764H181.126v-0.068
		c-68.711-0.445-124.479-56.479-124.479-125.292c0-69.093,56.212-125.304,125.301-125.304c69.09,0,125.305,56.211,125.305,125.304
		c0,46.053-24.982,86.379-62.104,108.154h61.131c25.234-28.971,40.537-66.808,40.537-108.154c0-46.675-19.494-88.873-50.766-118.895
		l18.049-25.488c3.273-4.629,2.182-11.031-2.443-14.307l-27.219-19.275c-4.625-3.27-11.033-2.175-14.311,2.447l-18.498,26.123
		c-13.652-6.397-28.311-10.98-43.673-13.42V77.824c0-6.801,5.567-12.367,12.368-12.367h6.821c6.805,0,12.371-5.565,12.371-12.36
		V15.484c0-6.798-5.566-12.37-12.371-12.37h-90.399c-6.797,0-12.366,5.572-12.366,12.37v37.612c0,6.795,5.568,12.36,12.366,12.36
		h6.83c6.799,0,12.366,5.566,12.366,12.367v10.622c-16.474,2.62-32.128,7.691-46.602,14.816L91.014,77.389
		c-3.273-4.628-9.678-5.716-14.304-2.446L49.494,94.218c-4.629,3.277-5.723,9.679-2.444,14.31l18.479,26.098
		c-29.915,29.856-48.452,71.122-48.452,116.635c0,90.905,73.963,164.867,164.87,164.867c4.402,0,8.761-0.184,13.077-0.524h148.64
		v58.716L460.358,396.113z"/>
</g>
</svg>
