<?xml version="1.0" encoding="utf-8"?>
<!-- Generator: Adobe Illustrator 16.0.0, SVG Export Plug-In . SVG Version: 6.00 Build 0)  -->
<!DOCTYPE svg PUBLIC "-//W3C//DTD SVG 1.1//EN" "http://www.w3.org/Graphics/SVG/1.1/DTD/svg11.dtd">
<svg version="1.1" id="Calque_1" xmlns="http://www.w3.org/2000/svg" xmlns:xlink="http://www.w3.org/1999/xlink" x="0px" y="0px"
	 width="1190.549px" height="841.891px" viewBox="0 0 1190.549 841.891" enable-background="new 0 0 1190.549 841.891"
	 xml:space="preserve">
<g opacity="0.03">
	<g>
		<g>
			<path fill="#FFFFFF" d="M639.333,347.981v119.268H517.26c-17.399,0-31.431-14.031-31.431-31.431v-54.442h131.896v-33.395
				c0-5.332-4.49-10.103-10.103-10.103H485.829v-21.328h121.793C625.302,316.551,639.333,330.582,639.333,347.981z M617.725,402.704
				H506.876v33.395c0,5.332,4.771,10.104,10.103,10.104h100.746V402.704z"/>
			<path fill="#FFFFFF" d="M1011.73,347.981v54.442H879.553v33.395c0,5.332,4.771,10.103,10.103,10.103h122.074v21.328H889.656
				c-17.399,0-31.431-14.031-31.431-31.431v-87.837c0-17.399,14.031-31.431,31.431-31.431h90.363
				C997.698,316.551,1011.73,330.582,1011.73,347.981z M990.121,381.376v-33.395c0-5.332-4.49-10.103-10.103-10.103h-90.363
				c-5.332,0-10.103,4.771-10.103,10.103v33.395H990.121z"/>
			<path fill="#FFFFFF" d="M819.217,317.673l-70.719,129.932l-91.485-166.413h-0.842H445.698l0,0h-0.561
				c-16.558,44.9-37.885,104.113-54.442,150.137l-54.723-150.137h-25.537c-16.838,44.9-37.886,104.113-54.442,150.137
				l-54.723-150.137H178.82l68.193,188.022h18.241l58.09-159.96l58.091,159.96h18.521l60.616-165.572h183.813
				c28.063,47.707,67.632,117.864,91.485,165.572h24.695l83.348-151.541H819.217z"/>
		</g>
	</g>
	<g opacity="0.75">
		<g>
			<path fill="#FFFFFF" d="M639.333,347.981v119.268H517.26c-17.399,0-31.431-14.031-31.431-31.431v-54.442h131.896v-33.395
				c0-5.332-4.49-10.103-10.103-10.103H485.829v-21.328h121.793C625.302,316.551,639.333,330.582,639.333,347.981z M617.725,402.704
				H506.876v33.395c0,5.332,4.771,10.104,10.103,10.104h100.746V402.704z"/>
			<path fill="#FFFFFF" d="M1011.73,347.981v54.442H879.553v33.395c0,5.332,4.771,10.103,10.103,10.103h122.074v21.328H889.656
				c-17.399,0-31.431-14.031-31.431-31.431v-87.837c0-17.399,14.031-31.431,31.431-31.431h90.363
				C997.698,316.551,1011.73,330.582,1011.73,347.981z M990.121,381.376v-33.395c0-5.332-4.49-10.103-10.103-10.103h-90.363
				c-5.332,0-10.103,4.771-10.103,10.103v33.395H990.121z"/>
			<path fill="#FFFFFF" d="M819.217,317.673l-70.719,129.932l-91.485-166.413h-0.842H445.698l0,0h-0.561
				c-16.558,44.9-37.885,104.113-54.442,150.137l-54.723-150.137h-25.537c-16.838,44.9-37.886,104.113-54.442,150.137
				l-54.723-150.137H178.82l68.193,188.022h18.241l58.09-159.96l58.091,159.96h18.521l60.616-165.572h183.813
				c28.063,47.707,67.632,117.864,91.485,165.572h24.695l83.348-151.541H819.217z"/>
		</g>
	</g>
</g>
<g opacity="0.03">
	<g>
		<g>
			<path fill="#FFFFFF" d="M661.783,504.854h15.996c-24.134,42.095-46.023,79.699-70.157,121.513h-15.996
				c-23.572-40.972-47.146-80.821-70.438-121.513h15.995l62.301,108.323L661.783,504.854z"/>
			<path fill="#FFFFFF" d="M707.527,496.435v13.751h-14.031v-13.751H707.527z M693.495,528.427h13.751v97.939h-13.751V528.427z"/>
			<path fill="#FFFFFF" d="M828.478,548.912v35.359h-85.872v21.608c0,3.648,3.087,6.455,6.454,6.455h79.418v13.751H749.06
				c-11.226,0-20.486-9.261-20.486-20.486v-56.968c0-11.226,9.261-20.486,20.486-20.486h58.651
				C819.217,528.427,828.478,537.406,828.478,548.912z M814.447,570.521v-21.608c0-3.648-2.806-6.454-6.454-6.454H749.34
				c-3.647,0-6.454,3.087-6.454,6.454v21.608H814.447z"/>
			<path fill="#FFFFFF" d="M1008.362,528.427l-37.043,97.939h-12.066l-36.482-80.821l-34.518,80.821h-12.066
				c-13.19-33.395-25.538-64.825-38.447-97.939h14.874l29.747,72.964l31.711-72.964h18.24l33.676,72.683l27.783-72.683H1008.362
				L1008.362,528.427z"/>
		</g>
	</g>
	<g opacity="0.75">
		<g>
			<path fill="#FFFFFF" d="M661.783,504.854h15.996c-24.134,42.095-46.023,79.699-70.157,121.513h-15.996
				c-23.572-40.972-47.146-80.821-70.438-121.513h15.995l62.301,108.323L661.783,504.854z"/>
			<path fill="#FFFFFF" d="M707.527,496.435v13.751h-14.031v-13.751H707.527z M693.495,528.427h13.751v97.939h-13.751V528.427z"/>
			<path fill="#FFFFFF" d="M828.478,548.912v35.359h-85.872v21.608c0,3.648,3.087,6.455,6.454,6.455h79.418v13.751H749.06
				c-11.226,0-20.486-9.261-20.486-20.486v-56.968c0-11.226,9.261-20.486,20.486-20.486h58.651
				C819.217,528.427,828.478,537.406,828.478,548.912z M814.447,570.521v-21.608c0-3.648-2.806-6.454-6.454-6.454H749.34
				c-3.647,0-6.454,3.087-6.454,6.454v21.608H814.447z"/>
			<path fill="#FFFFFF" d="M1008.362,528.427l-37.043,97.939h-12.066l-36.482-80.821l-34.518,80.821h-12.066
				c-13.19-33.395-25.538-64.825-38.447-97.939h14.874l29.747,72.964l31.711-72.964h18.24l33.676,72.683l27.783-72.683H1008.362
				L1008.362,528.427z"/>
		</g>
	</g>
</g>
</svg>
