<?xml version="1.0" encoding="utf-8"?>
<!-- Generator: Adobe Illustrator 16.0.0, SVG Export Plug-In . SVG Version: 6.00 Build 0)  -->
<!DOCTYPE svg PUBLIC "-//W3C//DTD SVG 1.1//EN" "http://www.w3.org/Graphics/SVG/1.1/DTD/svg11.dtd">
<svg version="1.1" id="Capa_1" xmlns="http://www.w3.org/2000/svg" xmlns:xlink="http://www.w3.org/1999/xlink" x="0px" y="0px"
	 width="30px" height="30px" viewBox="0 0 30 30" enable-background="new 0 0 30 30" xml:space="preserve">
<g>
	<g>
		<path fill="#FFFFFF" d="M8.542,15.188c0.215,0.172,0.326,0.449,0.271,0.721L8.554,17.25c-0.062,0.332,0.123,0.652,0.431,0.77
			l0.837,0.314l0.837,0.313c0.308,0.117,0.659-0.013,0.831-0.301l0.665-1.15c0.142-0.238,0.406-0.383,0.683-0.368
			c0.394,0.021,0.794,0.007,1.188-0.037c0.277-0.03,0.542,0.087,0.702,0.313l0.77,1.133c0.191,0.275,0.555,0.377,0.855,0.24
			l0.813-0.375l0.813-0.375c0.311-0.145,0.469-0.479,0.383-0.809l-0.346-1.281c-0.072-0.271,0.021-0.554,0.223-0.738
			c0.297-0.271,0.572-0.561,0.818-0.868c0.172-0.215,0.448-0.32,0.715-0.271l1.342,0.259c0.332,0.062,0.652-0.123,0.771-0.431
			l0.313-0.837l0.314-0.837c0.115-0.308-0.014-0.659-0.303-0.831l-1.156-0.653c-0.246-0.135-0.389-0.406-0.377-0.689
			c0.02-0.394,0.008-0.788-0.035-1.188c-0.031-0.277,0.086-0.542,0.313-0.702l1.133-0.77c0.274-0.191,0.375-0.554,0.24-0.855
			L21.95,5.412l-0.378-0.813c-0.141-0.308-0.479-0.468-0.805-0.382l-1.281,0.345c-0.271,0.074-0.563-0.018-0.744-0.228
			c-0.277-0.314-0.579-0.591-0.899-0.843c-0.221-0.172-0.331-0.45-0.276-0.727l0.252-1.324c0.063-0.333-0.123-0.652-0.43-0.77
			L16.55,0.356l-0.837-0.314c-0.308-0.117-0.659,0.012-0.831,0.302l-0.677,1.169c-0.142,0.24-0.4,0.375-0.677,0.363
			c-0.4-0.019-0.8-0.006-1.2,0.043c-0.277,0.031-0.548-0.086-0.702-0.32l-0.757-1.114c-0.185-0.271-0.542-0.375-0.843-0.252
			L9.213,0.609L8.418,0.991C8.11,1.133,7.95,1.471,8.043,1.797l0.351,1.299C8.468,3.361,8.382,3.65,8.172,3.835
			C7.877,4.106,7.6,4.402,7.354,4.716c-0.172,0.215-0.449,0.326-0.72,0.271l-1.33-0.252c-0.333-0.062-0.653,0.124-0.77,0.431
			L4.22,6.002L3.906,6.839c-0.117,0.308,0.012,0.66,0.302,0.832l1.17,0.677c0.24,0.142,0.375,0.4,0.363,0.677
			c-0.019,0.4-0.006,0.8,0.043,1.201c0.031,0.277-0.086,0.548-0.32,0.702l-1.108,0.745c-0.277,0.191-0.375,0.554-0.24,0.856
			l0.375,0.813l0.375,0.813c0.142,0.308,0.48,0.468,0.807,0.382l1.299-0.351c0.271-0.074,0.554,0.019,0.739,0.222
			C7.969,14.689,8.246,14.954,8.542,15.188z M11.515,5.787c1.97-0.936,4.329-0.098,5.264,1.872c0.936,1.97,0.098,4.328-1.872,5.264
			c-1.97,0.936-4.328,0.099-5.264-1.871C8.708,9.081,9.545,6.723,11.515,5.787z"/>
		<path fill="#FFFFFF" d="M25.945,19.59l-0.518-0.166c-0.109-0.037-0.187-0.13-0.203-0.24c-0.023-0.16-0.066-0.317-0.115-0.475
			c-0.037-0.104-0.014-0.229,0.063-0.309l0.392-0.405c0.092-0.099,0.104-0.253,0.021-0.363l-0.223-0.296l-0.223-0.295
			c-0.08-0.111-0.229-0.143-0.352-0.08l-0.48,0.252c-0.104,0.057-0.228,0.043-0.317-0.023c-0.132-0.094-0.271-0.18-0.419-0.254
			c-0.102-0.049-0.165-0.15-0.174-0.264l-0.014-0.561c-0.006-0.137-0.104-0.252-0.24-0.271l-0.36-0.055l-0.363-0.057
			c-0.135-0.021-0.264,0.063-0.308,0.188l-0.166,0.521c-0.036,0.108-0.131,0.188-0.246,0.209c-0.166,0.022-0.333,0.065-0.493,0.123
			c-0.106,0.037-0.229,0.013-0.313-0.067l-0.397-0.382c-0.101-0.092-0.253-0.104-0.363-0.024l-0.296,0.222l-0.296,0.225
			c-0.108,0.078-0.142,0.229-0.08,0.351l0.253,0.492c0.051,0.103,0.043,0.226-0.023,0.313c-0.092,0.137-0.178,0.276-0.252,0.427
			c-0.051,0.104-0.152,0.165-0.267,0.173l-0.555,0.012c-0.136,0.008-0.252,0.104-0.276,0.234l-0.056,0.361l-0.056,0.362
			c-0.021,0.136,0.062,0.265,0.188,0.31l0.528,0.166c0.109,0.037,0.188,0.129,0.203,0.24c0.022,0.166,0.065,0.317,0.123,0.479
			c0.037,0.104,0.014,0.229-0.066,0.311l-0.382,0.398c-0.095,0.098-0.104,0.252-0.022,0.361l0.221,0.295l0.224,0.297
			c0.08,0.109,0.229,0.143,0.353,0.078l0.491-0.252c0.099-0.049,0.222-0.043,0.313,0.024c0.138,0.093,0.277,0.179,0.427,0.252
			c0.104,0.05,0.166,0.154,0.172,0.265l0.015,0.557c0.006,0.136,0.104,0.253,0.238,0.271l0.363,0.056l0.361,0.056
			c0.138,0.02,0.267-0.063,0.31-0.189l0.166-0.521c0.037-0.109,0.129-0.186,0.239-0.209c0.154-0.023,0.31-0.066,0.455-0.117
			c0.111-0.035,0.229-0.013,0.31,0.067l0.406,0.388c0.098,0.094,0.252,0.104,0.362,0.024l0.295-0.224l0.295-0.222
			c0.111-0.08,0.144-0.229,0.08-0.353l-0.252-0.485c-0.057-0.104-0.043-0.222,0.023-0.319c0.094-0.13,0.18-0.271,0.252-0.419
			c0.051-0.099,0.154-0.166,0.268-0.173l0.561-0.014c0.137-0.006,0.253-0.104,0.271-0.238l0.057-0.363l0.056-0.361
			C26.162,19.762,26.075,19.633,25.945,19.59z M23.797,19.891c-0.117,0.887-0.93,1.519-1.816,1.398
			c-0.885-0.117-1.514-0.93-1.396-1.816c0.118-0.886,0.931-1.515,1.815-1.396C23.287,18.191,23.914,19.005,23.797,19.891z"/>
		<path fill="#FFFFFF" d="M18.885,23.389l-0.781-0.137c-0.166-0.029-0.297-0.146-0.346-0.307c-0.068-0.229-0.16-0.45-0.265-0.659
			c-0.073-0.147-0.062-0.32,0.036-0.456l0.475-0.658c0.117-0.16,0.1-0.382-0.043-0.523l-0.375-0.375l-0.376-0.375
			c-0.142-0.143-0.362-0.158-0.522-0.051l-0.646,0.463c-0.138,0.101-0.313,0.104-0.47,0.03c-0.208-0.11-0.424-0.204-0.651-0.276
			c-0.154-0.057-0.271-0.186-0.302-0.346l-0.135-0.807c-0.031-0.197-0.203-0.346-0.4-0.346h-0.536h-0.536
			c-0.203,0-0.369,0.143-0.406,0.34l-0.135,0.775c-0.031,0.166-0.148,0.295-0.314,0.344c-0.24,0.074-0.468,0.168-0.684,0.275
			c-0.147,0.073-0.326,0.067-0.462-0.027l-0.652-0.469c-0.16-0.117-0.382-0.101-0.523,0.043L9.46,20.223L9.083,20.6
			c-0.142,0.144-0.16,0.363-0.049,0.523l0.462,0.658c0.092,0.135,0.104,0.314,0.031,0.455c-0.111,0.209-0.203,0.432-0.277,0.658
			c-0.049,0.16-0.185,0.271-0.345,0.303l-0.794,0.129c-0.191,0.031-0.339,0.203-0.351,0.395v0.535v0.535
			c0,0.203,0.142,0.37,0.339,0.407l0.794,0.136c0.16,0.03,0.295,0.146,0.345,0.301c0.074,0.229,0.16,0.449,0.271,0.665
			c0.074,0.147,0.062,0.327-0.031,0.456L9.01,27.408c-0.117,0.16-0.099,0.382,0.043,0.523l0.375,0.375l0.375,0.375
			c0.142,0.143,0.363,0.158,0.523,0.051l0.659-0.463c0.135-0.095,0.314-0.104,0.456-0.03c0.209,0.11,0.431,0.202,0.659,0.276
			c0.16,0.049,0.271,0.186,0.302,0.346l0.129,0.793c0.031,0.197,0.203,0.346,0.4,0.346h0.536h0.536c0.203,0,0.37-0.143,0.406-0.338
			l0.136-0.789c0.031-0.166,0.147-0.295,0.308-0.344c0.215-0.068,0.425-0.154,0.628-0.26c0.148-0.074,0.328-0.063,0.457,0.028
			l0.658,0.478c0.159,0.115,0.383,0.098,0.522-0.043l0.376-0.377l0.376-0.375c0.142-0.145,0.159-0.363,0.049-0.523l-0.455-0.646
			c-0.101-0.135-0.104-0.313-0.024-0.461c0.11-0.209,0.203-0.426,0.276-0.649c0.056-0.154,0.185-0.271,0.345-0.306l0.81-0.135
			c0.194-0.031,0.345-0.203,0.345-0.4v-0.532V23.79C19.229,23.592,19.082,23.419,18.885,23.389z M13.522,26.627
			c-1.299,0.012-2.364-1.035-2.376-2.334s1.034-2.363,2.333-2.377c1.299-0.012,2.365,1.035,2.376,2.334
			C15.866,25.549,14.821,26.613,13.522,26.627z"/>
	</g>
</g>
</svg>
