<?xml version="1.0" encoding="utf-8"?>
<!-- Generator: Adobe Illustrator 16.0.0, SVG Export Plug-In . SVG Version: 6.00 Build 0)  -->
<!DOCTYPE svg PUBLIC "-//W3C//DTD SVG 1.1//EN" "http://www.w3.org/Graphics/SVG/1.1/DTD/svg11.dtd">
<svg version="1.1" id="Layer_1" xmlns="http://www.w3.org/2000/svg" xmlns:xlink="http://www.w3.org/1999/xlink" x="0px" y="0px"
	 width="30px" height="30px" viewBox="0 0 30 30" enable-background="new 0 0 30 30" xml:space="preserve">
<g>
	<g>
		<path fill="#FFFFFF" d="M24.904,18.871c-0.189,0-0.377,0.011-0.563,0.031L19,9.181c0.686-0.868,1.096-1.961,1.096-3.149
			c0-2.81-2.285-5.096-5.099-5.096c-2.81,0-5.096,2.286-5.096,5.096c0,1.188,0.41,2.281,1.094,3.149l-5.342,9.721
			c-0.184-0.021-0.37-0.031-0.56-0.031C2.286,18.871,0,21.157,0,23.967c0,2.811,2.286,5.098,5.096,5.098
			c2.12,0,3.941-1.303,4.708-3.146h10.391c0.768,1.849,2.588,3.146,4.709,3.146c2.81,0,5.096-2.287,5.096-5.098
			C30,21.157,27.714,18.871,24.904,18.871z M20.195,22.02H9.804C9.618,21.57,9.37,21.154,9.07,20.781l5.324-9.689
			c0.199,0.023,0.4,0.037,0.605,0.037s0.407-0.014,0.604-0.037l5.324,9.689C20.631,21.154,20.382,21.57,20.195,22.02z"/>
	</g>
</g>
</svg>
