<?xml version="1.0" encoding="utf-8"?>
<!-- Generator: Adobe Illustrator 16.0.0, SVG Export Plug-In . SVG Version: 6.00 Build 0)  -->
<!DOCTYPE svg PUBLIC "-//W3C//DTD SVG 1.1//EN" "http://www.w3.org/Graphics/SVG/1.1/DTD/svg11.dtd">
<svg version="1.1" id="Calque_1" xmlns="http://www.w3.org/2000/svg" xmlns:xlink="http://www.w3.org/1999/xlink" x="0px" y="0px"
	 width="16px" height="16px" viewBox="0 0 16 16" enable-background="new 0 0 16 16" xml:space="preserve">
<path fill="#FFFFFF" d="M14.9,1.1c-1.4-1.4-3.7-1.4-5.104,0L5.4,5.4C4,6.9,4,9.1,5.4,10.6C5.5,10.7,5.7,10.8,5.8,10.9l1.5-1.5
	C7.2,9.3,7,9.2,6.9,9.1c-0.6-0.6-0.6-1.6,0-2.2l4.4-4.4c0.601-0.6,1.601-0.6,2.2,0s0.6,1.6,0,2.2L12.2,6C12.6,6.8,12.7,7.7,12.6,8.5
	L14.9,6.2C16.4,4.8,16.4,2.5,14.9,1.1z"/>
<path fill="#FFFFFF" d="M10.2,5.1L8.7,6.6c0,0,0.3,0.2,0.399,0.3C9.7,7.5,9.7,8.5,9.1,9.1L4.7,13.5c-0.6,0.6-1.6,0.6-2.2,0
	s-0.6-1.6,0-2.2L3.8,10C3.4,9.2,3.7,8.7,3.4,7.5L1.1,9.8c-1.4,1.4-1.4,3.7,0,5.101c1.4,1.399,3.7,1.399,5.1,0l4.399-4.397
	c1.397-1.397,1.397-3.7,0-5.1C10.4,5.3,10.2,5.1,10.2,5.1z"/>
</svg>
