<?xml version="1.0" encoding="utf-8"?>
<!-- Generator: Adobe Illustrator 22.1.0, SVG Export Plug-In . SVG Version: 6.00 Build 0)  -->
<svg version="1.1" id="Layer_1" xmlns="http://www.w3.org/2000/svg" xmlns:xlink="http://www.w3.org/1999/xlink" x="0px" y="0px"
	 viewBox="0 0 512 512" style="enable-background:new 0 0 512 512;" xml:space="preserve">
<style type="text/css">
	.st0{fill:#FFFFFF;}
</style>
<path class="st0" d="M256,30.3C129,30.3,30.3,129,30.3,256S132.6,481.7,256,481.7S481.7,379.4,481.7,256
	c0-52.9-17.6-105.8-49.4-144.6l-31.7,31.7c24.7,31.7,38.8,70.5,38.8,112.8c0,91.7-70.5,169.3-158.7,179.9
	c-3.5,14.1-17.6,24.7-31.7,24.7c-17.6,0-31.7-10.6-31.7-28.2C139.6,411.2,79.7,340.6,79.7,256c0-31.7,10.6-63.5,24.7-91.7
	c0-3.5-3.5-7.1-3.5-10.6c0-17.6,14.1-35.3,35.3-35.3h3.5c28.2-24.7,70.5-45.8,116.4-45.8c42.3,0,81.1,14.1,112.8,38.8l31.7-31.7
	C361.8,47.9,308.9,30.3,256,30.3z M256,97.3c-38.8,0-70.5,14.1-98.7,35.3c3.5,7.1,7.1,14.1,7.1,21.2c0,17.6-14.1,35.3-35.3,35.3
	c-3.5,0-10.6-3.5-14.1-7.1c-10.6,24.7-17.6,49.4-17.6,74.1c0,74.1,49.4,134,116.4,151.6c7.1-10.6,17.6-17.6,28.2-17.6
	c14.1,0,24.7,10.6,31.7,21.2c77.6-10.6,137.5-77.6,137.5-158.7c0-35.3-10.6-67-31.7-95.2L347.7,189c14.1,21.2,21.2,42.3,21.2,67
	c0,14.1-3.5,24.7-7.1,35.3c3.5,7.1,7.1,14.1,7.1,21.2c0,17.6-14.1,35.3-35.3,35.3c-3.5,0-7.1,0-10.6,0
	c-17.6,14.1-42.3,24.7-70.5,24.7c-63.5,0-112.8-49.4-112.8-112.8S192.5,143.2,256,143.2c24.7,0,45.8,7.1,63.5,17.6l31.7-31.7
	C323,107.9,291.3,97.3,256,97.3z M256,164.3c-49.4,0-91.7,42.3-91.7,91.7s42.3,91.7,91.7,91.7c17.6,0,35.3-7.1,49.4-14.1
	c0-7.1-3.5-14.1-3.5-21.2c0-17.6,14.1-35.3,35.3-35.3c3.5,0,3.5,0,7.1,0c3.5-7.1,3.5-14.1,3.5-24.7c0-17.6-3.5-31.7-14.1-45.8
	l-60,67c-7.1,3.5-10.6,3.5-17.6,3.5c-14.1,0-21.2-7.1-21.2-21.2c0-7.1,3.5-10.6,7.1-17.6l63.5-63.5
	C287.7,171.4,273.6,164.3,256,164.3z"/>
</svg>
