<?xml version="1.0" encoding="utf-8"?>
<!-- Generator: Adobe Illustrator 22.1.0, SVG Export Plug-In . SVG Version: 6.00 Build 0)  -->
<svg version="1.1" id="Layer_1" xmlns="http://www.w3.org/2000/svg" xmlns:xlink="http://www.w3.org/1999/xlink" x="0px" y="0px"
	 viewBox="0 0 512 512" style="enable-background:new 0 0 512 512;" xml:space="preserve">
<style type="text/css">
	.st0{fill:none;stroke:#FFFFFF;stroke-width:20;stroke-miterlimit:10;}
	.st1{fill:#FFFFFF;}
</style>
<polyline class="st0" points="311.3,245.2 275,281.5 230.5,237 266.8,200.7 "/>
<path class="st1" d="M393.2,158.1L465,86.3L425.7,47l-71.8,71.8l-25.9-25.9l-91.2,91.2l91.2,91.2l91.2-91.2L393.2,158.1z
	 M261.3,181.8l91.3-22.4l-22.4,91.3L261.3,181.8z"/>
<path class="st1" d="M118.8,353.9L47,425.7L86.3,465l71.8-71.8l25.9,25.9l91.2-91.2l-91.2-91.2l-91.2,91.2L118.8,353.9z
	 M250.7,330.2l-91.3,22.4l22.4-91.3L250.7,330.2z"/>
</svg>
