<?xml version="1.0" encoding="utf-8"?>
<!-- Generator: Adobe Illustrator 19.2.1, SVG Export Plug-In . SVG Version: 6.00 Build 0)  -->
<svg version="1.1" id="Capa_1" xmlns="http://www.w3.org/2000/svg" xmlns:xlink="http://www.w3.org/1999/xlink" x="0px" y="0px"
	 viewBox="0 0 296.3 296.3" style="enable-background:new 0 0 296.3 296.3;" xml:space="preserve">
<style type="text/css">
	.st0{fill:#FFFFFF;}
</style>
<g>
	<path class="st0" d="M296.3,205.1h-33l0,0c0,0-24.8-38.9-33.1-64l0,0c-2.4-7.6-10.2-12.3-18.2-10.6c-8.4,1.8-13.6,10.2-12,18.6
		l8,42.3H105.9c-7.4,0-13.8,5.8-14,13.2c-0.2,4.8,2.2,9.1,5.9,11.7h-7.4c-7.3,0-13.7,5.6-14,13c-0.4,7.8,5.9,14.3,13.6,14.3h3.1
		c-3.7,2.5-6.1,6.8-5.9,11.7c0.2,7.4,6.6,13.2,14,13.2h16.4c-2.7,2.7-4.3,6.5-4,10.6c0.5,7.2,6.7,12.7,14,12.7h122
		c7.5,0,13.6-6.1,13.6-13.6l0,0l0,0h33L296.3,205.1L296.3,205.1z"/>
	<path class="st0" d="M84.3,165.8c8.4-1.8,13.6-10.2,12-18.6l-8-42.3h102.1c7.4,0,13.8-5.8,14-13.2c0.2-4.8-2.2-9.1-5.9-11.7h7.4
		c7.3,0,13.7-5.6,14-13c0.4-7.8-5.9-14.3-13.6-14.3h-3.1c3.7-2.5,6.1-6.8,5.9-11.7c-0.2-7.4-6.6-13.2-14-13.2h-16.4
		c2.7-2.7,4.3-6.5,4-10.6c-0.5-7.2-6.7-12.7-14-12.7h-122C39.1,4.5,33,10.6,33,18.1l0,0l0,0H0v73.1h34.8c0,0,20,28.8,31.3,64l0,0
		C68.5,162.8,76.3,167.5,84.3,165.8z"/>
</g>
</svg>
