<?xml version="1.0" encoding="utf-8"?>
<!-- Generator: Adobe Illustrator 16.0.0, SVG Export Plug-In . SVG Version: 6.00 Build 0)  -->
<!DOCTYPE svg PUBLIC "-//W3C//DTD SVG 1.1//EN" "http://www.w3.org/Graphics/SVG/1.1/DTD/svg11.dtd">
<svg version="1.1" id="Capa_1" xmlns="http://www.w3.org/2000/svg" xmlns:xlink="http://www.w3.org/1999/xlink" x="0px" y="0px"
	 width="477.436px" height="477.434px" viewBox="0 0 477.436 477.434" enable-background="new 0 0 477.436 477.434"
	 xml:space="preserve">
<g>
	<g id="Layer_2_24_">
		<g>
			<path fill="#FFFFFF" d="M370.62,149.412l20.863-29.464c3.785-5.351,2.521-12.751-2.824-16.538l-31.465-22.281
				c-5.346-3.78-12.754-2.515-16.541,2.828l-21.383,30.198c-15.783-7.395-32.729-12.693-50.486-15.514V86.363
				c0-7.862,6.436-14.296,14.297-14.296h7.885c7.867,0,14.301-6.433,14.301-14.288v-43.48C305.266,6.441,298.833,0,290.966,0h-104.5
				c-7.857,0-14.294,6.441-14.294,14.299v43.479c0,7.855,6.437,14.288,14.294,14.288h7.896c7.859,0,14.295,6.434,14.295,14.296
				V98.64c-19.043,3.028-37.139,8.891-53.87,17.127L133.601,85.86c-3.784-5.35-11.188-6.608-16.535-2.828l-31.461,22.282
				c-5.352,3.788-6.615,11.188-2.825,16.542l21.361,30.169C69.56,186.538,48.132,234.24,48.132,286.852
				c0,105.084,85.499,190.582,190.586,190.582c105.091,0,190.585-85.498,190.585-190.582
				C429.303,232.896,406.768,184.117,370.62,149.412z M238.718,431.698c-79.865,0-144.845-64.982-144.845-144.847
				c0-79.869,64.979-144.848,144.845-144.848c79.867,0,144.849,64.979,144.849,144.848
				C383.567,366.715,318.585,431.698,238.718,431.698z"/>
			<path fill="#FFFFFF" d="M238.718,167.411c-0.321,0-0.635,0.029-0.95,0.029v118.455h120.358
				C357.616,220.476,304.255,167.411,238.718,167.411z"/>
		</g>
	</g>
</g>
</svg>
