<?xml version="1.0" encoding="iso-8859-1"?>
<!-- Generator: Adobe Illustrator 18.1.1, SVG Export Plug-In . SVG Version: 6.00 Build 0)  -->
<svg xmlns="http://www.w3.org/2000/svg" xmlns:xlink="http://www.w3.org/1999/xlink" version="1.1" id="Capa_1" x="0px" y="0px" viewBox="0 0 472 472" style="enable-background:new 0 0 472 472;" xml:space="preserve" width="512px" height="512px">
<g>
	<g>
		<path d="M345,281.5c18-29.333,27-61.333,27-96c0-51.333-18.167-95-54.5-131s-80.167-54-131.5-54    s-95.167,18-131.5,54S0,134.167,0,185.5S18.167,280.667,54.5,317s80.167,54.5,131.5,54.5c34.667,0,66.667-9,96-27l127,127l63-63    L345,281.5z M267.5,267c-22.333,22.333-49.5,33.5-81.5,33.5c-31.333,0-58.333-11.167-81-33.5s-34-49.333-34-81    s11.333-58.667,34-81s49.667-33.833,81-34.5c32,0.667,59.167,12.167,81.5,34.5s33.5,49.333,33.5,81S289.833,244.667,267.5,267z" fill="#FFFFFF"/>
	</g>
</g>
<g>
</g>
<g>
</g>
<g>
</g>
<g>
</g>
<g>
</g>
<g>
</g>
<g>
</g>
<g>
</g>
<g>
</g>
<g>
</g>
<g>
</g>
<g>
</g>
<g>
</g>
<g>
</g>
<g>
</g>
</svg>
