<?xml version="1.0" encoding="iso-8859-1"?>
<!-- Generator: Adobe Illustrator 18.0.0, SVG Export Plug-In . SVG Version: 6.00 Build 0)  -->
<!DOCTYPE svg PUBLIC "-//W3C//DTD SVG 1.1//EN" "http://www.w3.org/Graphics/SVG/1.1/DTD/svg11.dtd">
<svg version="1.1" id="Capa_1" xmlns="http://www.w3.org/2000/svg" xmlns:xlink="http://www.w3.org/1999/xlink" x="0px" y="0px"
	 viewBox="0 0 305.276 305.276" style="enable-background:new 0 0 305.276 305.276;" xml:space="preserve">
<g>
	<path d="M299.73,145.181c-2.659-3.576-66.046-87.574-147.093-87.574c-81.048,0-144.434,83.998-147.093,87.574L0,152.639
		l5.545,7.458c2.659,3.576,66.045,87.573,147.093,87.573c81.047,0,144.434-83.997,147.093-87.573l5.546-7.458L299.73,145.181z
		 M152.638,202.692c-27.6,0-50.054-22.454-50.054-50.054c0-27.601,22.454-50.055,50.054-50.055
		c27.601,0,50.055,22.454,50.055,50.055C202.692,180.238,180.238,202.692,152.638,202.692z"/>
	<circle cx="152.638" cy="152.638" r="21.261"/>
</g>
<g>
</g>
<g>
</g>
<g>
</g>
<g>
</g>
<g>
</g>
<g>
</g>
<g>
</g>
<g>
</g>
<g>
</g>
<g>
</g>
<g>
</g>
<g>
</g>
<g>
</g>
<g>
</g>
<g>
</g>
</svg>
