<?xml version="1.0" encoding="utf-8"?>
<!-- Generator: Adobe Illustrator 19.2.1, SVG Export Plug-In . SVG Version: 6.00 Build 0)  -->
<svg version="1.1" id="Calque_1" xmlns="http://www.w3.org/2000/svg" xmlns:xlink="http://www.w3.org/1999/xlink" x="0px" y="0px"
	 viewBox="0 0 30 30" style="enable-background:new 0 0 30 30;" xml:space="preserve">
<style type="text/css">
	.st0{fill:#FFFFFF;}
</style>
<g>
	<g>
		<rect x="0" y="19.3" class="st0" width="4.3" height="4.3"/>
		<rect x="6.4" y="19.3" class="st0" width="4.3" height="10.7"/>
		<rect x="12.7" y="19.4" class="st0" width="4.3" height="6"/>
		<rect x="19.2" y="19.2" class="st0" width="4.3" height="9.1"/>
		<rect x="25.7" y="19.1" class="st0" width="4.3" height="5.6"/>
	</g>
	<g>
		<path class="st0" d="M6.7,17.4l-3.4-11H3.2c0.1,2.2,0.2,3.7,0.2,4.5v6.5H0.8v-14h4l3.3,10.7h0.1l3.5-10.7h4v14h-2.8v-6.6
			c0-0.3,0-0.7,0-1.1c0-0.4,0.1-1.5,0.1-3.2H13L9.4,17.4H6.7z"/>
		<path class="st0" d="M25.1,5.7c-1.1,0-2,0.4-2.6,1.3s-0.9,2-0.9,3.5c0,3.1,1.2,4.7,3.5,4.7c1,0,2.2-0.2,3.6-0.7v2.5
			c-1.1,0.5-2.4,0.7-3.8,0.7c-2,0-3.6-0.6-4.7-1.8c-1.1-1.2-1.6-3-1.6-5.3c0-1.5,0.3-2.7,0.8-3.8c0.5-1.1,1.3-1.9,2.3-2.5
			c1-0.6,2.2-0.9,3.5-0.9c1.4,0,2.7,0.3,4.1,1l-1,2.4c-0.5-0.2-1-0.5-1.6-0.6C26.2,5.8,25.7,5.7,25.1,5.7z"/>
	</g>
</g>
</svg>
