<?xml version="1.0" encoding="utf-8"?>
<!-- Generator: Adobe Illustrator 16.0.0, SVG Export Plug-In . SVG Version: 6.00 Build 0)  -->
<!DOCTYPE svg PUBLIC "-//W3C//DTD SVG 1.1//EN" "http://www.w3.org/Graphics/SVG/1.1/DTD/svg11.dtd">
<svg version="1.1" id="Calque_1" xmlns="http://www.w3.org/2000/svg" xmlns:xlink="http://www.w3.org/1999/xlink" x="0px" y="0px"
	 width="100px" height="100px" viewBox="0 0 100 100" enable-background="new 0 0 100 100" xml:space="preserve">
<g>
	<g>
		<path fill="#FFFFFF" d="M25.434,42.476c2.648-0.355,5.297,0.553,7.175,2.43l4.744,4.744l4.487-4.467l-6.484-6.463
			c-1.008-1.008-1.008-2.649,0-3.657c1.008-1.008,2.649-1.008,3.658,0l6.482,6.483l4.486-4.467l-4.763-4.764
			c-1.878-1.878-2.787-4.546-2.431-7.174c0.79-6.009-1.126-12.295-5.732-16.92C32.352,3.518,25.908,1.621,19.8,2.53
			c-0.969,0.138-1.364,1.344-0.672,2.036l6.107,6.107c2.906,2.905,2.906,7.61,0,10.496l-3.755,3.755
			c-2.906,2.905-7.61,2.905-10.496,0l-6.127-6.107c-0.691-0.692-1.878-0.296-2.036,0.672C1.913,25.596,3.811,32.04,8.514,36.744
			C13.14,41.35,19.425,43.267,25.434,42.476z"/>
		<path fill="#FFFFFF" d="M63.423,50.521l-4.487,4.467l26.644,26.644c1.009,1.008,1.009,2.648,0,3.656
			c-1.007,1.009-2.648,1.009-3.655,0L55.279,58.645l-4.487,4.467l27.454,27.454c3.48,3.478,9.112,3.459,12.591-0.019
			c3.479-3.48,3.479-9.112,0.021-12.593L63.423,50.521z"/>
		<path fill="#FFFFFF" d="M73.72,32.731h11.84l11.84-23.659l-5.91-5.911l-23.679,11.82v11.839L35.633,58.9l-5.791-5.771
			L6.518,76.453c-4.863,4.862-4.863,12.729,0,17.59c4.863,4.863,12.729,4.863,17.592,0l23.323-23.321l-5.91-5.911L73.72,32.731z"/>
	</g>
</g>
</svg>
