<?xml version="1.0" encoding="utf-8"?>
<!-- Generator: Adobe Illustrator 19.2.1, SVG Export Plug-In . SVG Version: 6.00 Build 0)  -->
<svg version="1.1" id="Calque_1" xmlns="http://www.w3.org/2000/svg" xmlns:xlink="http://www.w3.org/1999/xlink" x="0px" y="0px"
	 viewBox="0 0 74.6 100" style="enable-background:new 0 0 74.6 100;" xml:space="preserve">
<style type="text/css">
	.st0{fill:#FFFFFF;}
</style>
<title>phi</title>
<path class="st0" d="M71.3,38.4c0-18.8-15.2-34-34-34h-6V60c-11.9-3.4-19-15.8-15.7-27.7c0.5-1.6,1.1-3.3,1.9-4.7l-10-5.7
	c-9.1,16.4-3.3,37.1,13.1,46.3c3.3,1.8,6.8,3.1,10.6,3.8v23.7h12.2V71.8C59.5,68.9,71.3,54.8,71.3,38.4z M43.4,60V16.8
	c11.8,3.4,18.9,15.8,15.4,27.7C56.7,52,50.9,57.9,43.4,60z"/>
</svg>
