<?xml version="1.0" encoding="utf-8"?>
<!-- Generator: Adobe Illustrator 16.0.0, SVG Export Plug-In . SVG Version: 6.00 Build 0)  -->
<!DOCTYPE svg PUBLIC "-//W3C//DTD SVG 1.1//EN" "http://www.w3.org/Graphics/SVG/1.1/DTD/svg11.dtd">
<svg version="1.1" id="Calque_1" xmlns="http://www.w3.org/2000/svg" xmlns:xlink="http://www.w3.org/1999/xlink" x="0px" y="0px"
	 width="30px" height="30px" viewBox="0 0 30 30" enable-background="new 0 0 30 30" xml:space="preserve">
<g>
	<g>
		<g>
			<polygon fill="#FFFFFF" points="10.125,15 10.125,7.791 16.684,11.396 23.244,15 16.684,18.605 10.125,22.209 			"/>
		</g>
	</g>
	<g>
		<g>
			<path fill="#FFFFFF" d="M-0.005,15.002c0,8.273,6.729,15.002,15.002,15.002C23.271,30.005,30,23.275,30,15.002
				C30,6.729,23.271,0,14.998,0C6.724,0-0.005,6.729-0.005,15.002z M25.096,15.002c0,5.568-4.529,10.1-10.098,10.1
				C9.43,25.102,4.9,20.57,4.9,15.002c0-5.568,4.53-10.099,10.098-10.099C20.564,4.904,25.096,9.434,25.096,15.002z"/>
		</g>
	</g>
</g>
</svg>
