<?xml version="1.0" encoding="utf-8"?>
<!-- Generator: Adobe Illustrator 22.1.0, SVG Export Plug-In . SVG Version: 6.00 Build 0)  -->
<svg version="1.1" id="Calque_1" xmlns="http://www.w3.org/2000/svg" xmlns:xlink="http://www.w3.org/1999/xlink" x="0px" y="0px"
	 viewBox="0 0 77.6 77.6" style="enable-background:new 0 0 77.6 77.6;" xml:space="preserve">
<style type="text/css">
	.st0{fill:#FFFFFF;}
</style>
<title>R select</title>
<path class="st0" d="M57.1,56.3l-4.6-4.4c-1.7,1.8-3.7,3.2-6,4.3L49,62C52.1,60.6,54.8,58.7,57.1,56.3z"/>
<path class="st0" d="M64.1,40.5l-6.4-0.4c-0.2,2.5-0.8,4.9-1.9,7.1l5.7,2.8C63,47,63.8,43.8,64.1,40.5z"/>
<path class="st0" d="M59.4,23.9l-5.2,3.7c1.4,2,2.5,4.2,3.1,6.6l6.2-1.5C62.7,29.6,61.3,26.5,59.4,23.9z"/>
<path class="st0" d="M14.5,45.8l6.1-1.8c-0.7-2.4-0.9-4.8-0.6-7.3l-6.3-0.7C13.3,39.3,13.6,42.6,14.5,45.8z"/>
<path class="st0" d="M24.7,59.8l3.6-5.3c-2.1-1.4-3.8-3.1-5.2-5.2l-5.3,3.5C19.6,55.6,21.9,57.9,24.7,59.8z"/>
<path class="st0" d="M41.4,64l-0.7-6.4c-2.5,0.3-4.9,0-7.3-0.7l-1.8,6.1C34.8,64,38.1,64.3,41.4,64z"/>
<path class="st0" d="M44.9,14.2l-1.5,6.2C45.7,21,48,22,50,23.5l3.7-5.1C51.1,16.4,48.1,15,44.9,14.2z"/>
<path class="st0" d="M27.7,16l2.8,5.7c2.2-1.1,4.6-1.7,7.1-1.9l-0.4-6.4C33.9,13.7,30.7,14.6,27.7,16z"/>
<path class="st0" d="M15.7,28.4l5.8,2.6c1-2.2,2.5-4.3,4.3-6l-4.4-4.6C19,22.7,17.1,25.4,15.7,28.4z"/>
</svg>
