<?xml version="1.0" encoding="utf-8"?>
<!-- Generator: Adobe Illustrator 22.1.0, SVG Export Plug-In . SVG Version: 6.00 Build 0)  -->
<svg version="1.1" id="Layer_1" xmlns="http://www.w3.org/2000/svg" xmlns:xlink="http://www.w3.org/1999/xlink" x="0px" y="0px"
	 viewBox="0 0 512 512" style="enable-background:new 0 0 512 512;" xml:space="preserve">
<style type="text/css">
	.st0{fill:#FFFFFF;}
</style>
<polygon class="st0" points="385.4,254.9 182.8,137.9 182.8,371.9 "/>
<path class="st0" d="M337.2,75.2L234.8,16.1v40.9c-99,11.7-175.8,95.8-175.8,198c0,75.2,41.6,140.6,103,174.6l33-19
	c-61.3-25-104.6-85.2-104.6-155.5c0-84.7,62.7-154.8,144.3-166.2v45.6L337.2,75.2z"/>
<path class="st0" d="M174.8,436.8l102.4,59.1v-40.9c99-11.7,175.8-95.8,175.8-198c0-75.2-41.6-140.6-103-174.6l-33,19
	c61.3,25,104.6,85.2,104.6,155.5c0,84.7-62.7,154.8-144.3,166.2v-45.6L174.8,436.8z"/>
</svg>
