<?xml version="1.0" encoding="UTF-8" standalone="no"?>
<!-- Generator: Adobe Illustrator 16.0.0, SVG Export Plug-In . SVG Version: 6.00 Build 0)  -->

<svg
   xmlns:dc="http://purl.org/dc/elements/1.1/"
   xmlns:cc="http://creativecommons.org/ns#"
   xmlns:rdf="http://www.w3.org/1999/02/22-rdf-syntax-ns#"
   xmlns:svg="http://www.w3.org/2000/svg"
   xmlns="http://www.w3.org/2000/svg"
   xmlns:sodipodi="http://sodipodi.sourceforge.net/DTD/sodipodi-0.dtd"
   xmlns:inkscape="http://www.inkscape.org/namespaces/inkscape"
   version="1.1"
   id="Capa_1"
   x="0px"
   y="0px"
   width="430.117px"
   height="430.117px"
   viewBox="0 0 430.117 430.117"
   enable-background="new 0 0 430.117 430.117"
   xml:space="preserve"
   inkscape:version="0.91 r13725"
   sodipodi:docname="script-checked.svg"><metadata
     id="metadata9"><rdf:RDF><cc:Work
         rdf:about=""><dc:format>image/svg+xml</dc:format><dc:type
           rdf:resource="http://purl.org/dc/dcmitype/StillImage" /><dc:title /></cc:Work></rdf:RDF></metadata><defs
     id="defs7" /><sodipodi:namedview
     pagecolor="#ffffff"
     bordercolor="#666666"
     borderopacity="1"
     objecttolerance="10"
     gridtolerance="10"
     guidetolerance="10"
     inkscape:pageopacity="0"
     inkscape:pageshadow="2"
     inkscape:window-width="781"
     inkscape:window-height="480"
     id="namedview5"
     showgrid="false"
     inkscape:zoom="0.54868791"
     inkscape:cx="-272.46819"
     inkscape:cy="215.0585"
     inkscape:window-x="0"
     inkscape:window-y="0"
     inkscape:window-maximized="0"
     inkscape:current-layer="Capa_1" /><path
     id="path3"
     style="fill:#40a7c3;fill-opacity:1"
     d="m 402.857,50.464 0,26.858 -53.716,0 0,-26.858 -268.57,0 0,26.858 -53.713,0 0,-26.858 -26.858,0 0,322.283 26.858,0 0,-26.853 53.713,0 0,26.853 268.57,0 0,-26.853 53.716,0 0,26.853 26.854,0 0,-322.283 -26.854,0 z m -322.286,241.715 -53.713,0 0,-53.716 53.713,0 0,53.716 z m 0,-107.429 -53.713,0 0,-53.715 53.713,0 0,53.715 z m 61.759,124.037 0,-197.464 183.661,98.731 -183.661,98.733 z m 260.527,-16.608 -53.716,0 0,-53.716 53.716,0 0,53.716 z m 0,-107.429 -53.716,0 0,-53.715 53.716,0 0,53.715 z" /></svg>