<?xml version="1.0" encoding="utf-8"?>
<!-- Generator: Adobe Illustrator 19.2.1, SVG Export Plug-In . SVG Version: 6.00 Build 0)  -->
<svg version="1.1" id="Layer_1" xmlns="http://www.w3.org/2000/svg" xmlns:xlink="http://www.w3.org/1999/xlink" x="0px" y="0px"
	 viewBox="0 0 512 512" style="enable-background:new 0 0 512 512;" xml:space="preserve">
<style type="text/css">
	.st0{fill:#FFFFFF;}
</style>
<g>
	<g>
		
			<rect x="269.4" y="319.1" transform="matrix(0.7071 -0.7071 0.7071 0.7071 -146.0057 355.7648)" class="st0" width="174.1" height="70"/>
	</g>
</g>
<g>
	<g>
		
			<rect x="427.8" y="239" transform="matrix(0.7071 -0.7071 0.7071 0.7071 -65.8927 388.9522)" class="st0" width="17.5" height="70"/>
	</g>
</g>
<g>
	<g>
		<polygon class="st0" points="260.9,406.4 239.2,471.4 304.2,449.7 		"/>
	</g>
</g>
<g>
	<g>
		
			<rect x="449.4" y="206.6" transform="matrix(0.7071 -0.7071 0.7071 0.7071 -33.5028 402.3625)" class="st0" width="39.1" height="70"/>
	</g>
</g>
<path class="st0" d="M334.8,189.7c0-92.4-74.7-167.1-167.1-167.1h-29.5v273.3C79.6,279.2,44.7,218.2,61,159.7
	c2.5-7.9,5.4-16.2,9.3-23.1l-49.2-28C-23.6,189.2,4.9,291,85.5,336.2c16.2,8.8,33.4,15.2,52.1,18.7v116.5h60V353.9
	C276.8,339.6,334.8,270.3,334.8,189.7z M197.6,295.9V83.5c58,16.7,92.9,77.7,75.7,136.2C263,256.5,234.5,285.5,197.6,295.9z"/>
</svg>
