<?xml version="1.0" encoding="utf-8"?>
<!-- Generator: Adobe Illustrator 16.0.0, SVG Export Plug-In . SVG Version: 6.00 Build 0)  -->
<!DOCTYPE svg PUBLIC "-//W3C//DTD SVG 1.1//EN" "http://www.w3.org/Graphics/SVG/1.1/DTD/svg11.dtd">
<svg version="1.1" id="Calque_1" xmlns="http://www.w3.org/2000/svg" xmlns:xlink="http://www.w3.org/1999/xlink" x="0px" y="0px"
	 width="30px" height="30px" viewBox="0 0 30 30" enable-background="new 0 0 30 30" xml:space="preserve">
<g>
	<g>
		<g>
			<path fill="#FFFFFF" d="M29.822,13.792h-2.649c-0.61-6.253-5.878-11.077-12.224-11.077c-0.886,0-1.778,0.097-2.653,0.29
				c-2.573,0.566-4.942,1.986-6.67,3.998l-0.26,0.303l2.208,3.838l0.504-0.75c1.361-2.022,3.525-3.338,5.936-3.61
				c0.326-0.037,0.632-0.053,0.935-0.053c4.109,0,7.591,3.057,8.18,7.063h-2.736l4.717,8.167L29.822,13.792z"/>
		</g>
	</g>
	<g>
		<g>
			<path fill="#FFFFFF" d="M14.949,27.285c0.734,0,1.482-0.067,2.223-0.205c2.598-0.475,5.016-1.811,6.811-3.756l0.281-0.305
				l-2.168-3.771l-0.513,0.688c-1.458,1.953-3.683,3.16-6.106,3.313c-0.177,0.012-0.352,0.019-0.528,0.019
				c-3.942,0-7.316-2.791-8.099-6.594h2.42L4.556,8.51l-4.714,8.167h2.937C3.602,22.76,8.748,27.285,14.949,27.285z"/>
		</g>
	</g>
</g>
<g>
	<polygon fill="#FFFFFF" points="11.993,9.316 9.386,11.923 12.463,15.001 9.388,18.077 11.993,20.684 15.071,17.607 18.146,20.684 
		20.755,18.077 17.678,15 20.754,11.923 18.148,9.317 15.072,12.394 	"/>
</g>
</svg>
