<?xml version="1.0" encoding="utf-8"?>
<!-- Generator: Adobe Illustrator 16.0.0, SVG Export Plug-In . SVG Version: 6.00 Build 0)  -->
<!DOCTYPE svg PUBLIC "-//W3C//DTD SVG 1.1//EN" "http://www.w3.org/Graphics/SVG/1.1/DTD/svg11.dtd">
<svg version="1.1" id="Capa_1" xmlns="http://www.w3.org/2000/svg" xmlns:xlink="http://www.w3.org/1999/xlink" x="0px" y="0px"
	 width="1190.549px" height="841.891px" viewBox="0 0 1190.549 841.891" enable-background="new 0 0 1190.549 841.891"
	 xml:space="preserve">
<g>
	<g>
		<path fill="#FFFFFF" d="M734.693,495.331c0,76.966-62.344,139.312-139.311,139.312c-76.966,0-139.312-62.346-139.312-139.312
			S518.416,356.02,595.382,356.02C672.349,356.02,734.693,418.365,734.693,495.331z M891.849,841.891H298.915
			c-126.199,0-228.532-102.334-228.532-228.532V246.806c0,0,112.868-59.552,300.123-91.8l11.394-49.017
			C396.304,43.858,451.771,0,515.406,0h159.736c63.852,0,119.103,43.858,133.506,105.989l11.396,49.017
			c187.038,32.248,300.122,91.8,300.122,91.8v366.553C1120.38,739.557,1018.047,841.891,891.849,841.891z M267.956,333.445
			c0-22.573-18.274-40.848-40.847-40.848c-22.574,0-40.848,18.274-40.848,40.848c0,22.574,18.273,40.848,40.848,40.848
			C249.682,374.293,267.956,356.02,267.956,333.445z M843.907,495.331c0-137.162-111.149-248.525-248.525-248.525
			c-137.161,0-248.525,111.147-248.525,248.525c0,137.161,111.149,248.524,248.525,248.524
			C732.544,743.642,843.907,632.492,843.907,495.331z"/>
	</g>
</g>
</svg>
