<?xml version="1.0" encoding="UTF-8" standalone="no"?>
<!-- Generator: Adobe Illustrator 16.0.0, SVG Export Plug-In . SVG Version: 6.00 Build 0)  -->

<svg
   xmlns:dc="http://purl.org/dc/elements/1.1/"
   xmlns:cc="http://creativecommons.org/ns#"
   xmlns:rdf="http://www.w3.org/1999/02/22-rdf-syntax-ns#"
   xmlns:svg="http://www.w3.org/2000/svg"
   xmlns="http://www.w3.org/2000/svg"
   xmlns:sodipodi="http://sodipodi.sourceforge.net/DTD/sodipodi-0.dtd"
   xmlns:inkscape="http://www.inkscape.org/namespaces/inkscape"
   version="1.1"
   id="Capa_1"
   x="0px"
   y="0px"
   width="1190.549px"
   height="841.891px"
   viewBox="0 0 1190.549 841.891"
   enable-background="new 0 0 1190.549 841.891"
   xml:space="preserve"
   inkscape:version="0.91 r13725"
   sodipodi:docname="snapshot-disabled.svg"><metadata
     id="metadata13"><rdf:RDF><cc:Work
         rdf:about=""><dc:format>image/svg+xml</dc:format><dc:type
           rdf:resource="http://purl.org/dc/dcmitype/StillImage" /><dc:title /></cc:Work></rdf:RDF></metadata><defs
     id="defs11" /><sodipodi:namedview
     pagecolor="#ffffff"
     bordercolor="#666666"
     borderopacity="1"
     objecttolerance="10"
     gridtolerance="10"
     guidetolerance="10"
     inkscape:pageopacity="0"
     inkscape:pageshadow="2"
     inkscape:window-width="1280"
     inkscape:window-height="1002"
     id="namedview9"
     showgrid="false"
     inkscape:zoom="0.28032133"
     inkscape:cx="-446.38726"
     inkscape:cy="420.9455"
     inkscape:window-x="-8"
     inkscape:window-y="-8"
     inkscape:window-maximized="1"
     inkscape:current-layer="Capa_1" /><g
     id="g3"
     style="fill:#808080"><g
       id="g5"
       style="fill:#808080"><path
         id="path7"
         style="fill:#808080"
         d="m 734.693,495.331 c 0,76.966 -62.344,139.312 -139.311,139.312 -76.966,0 -139.312,-62.346 -139.312,-139.312 0,-76.966 62.346,-139.311 139.312,-139.311 76.967,0 139.311,62.345 139.311,139.311 z m 157.156,346.56 -592.934,0 C 172.716,841.891 70.383,739.557 70.383,613.359 l 0,-366.553 c 0,0 112.868,-59.552 300.123,-91.8 L 381.9,105.989 C 396.304,43.858 451.771,0 515.406,0 l 159.736,0 c 63.852,0 119.103,43.858 133.506,105.989 l 11.396,49.017 c 187.038,32.248 300.122,91.8 300.122,91.8 l 0,366.553 c 0.214,126.198 -102.119,228.532 -228.317,228.532 z M 267.956,333.445 c 0,-22.573 -18.274,-40.848 -40.847,-40.848 -22.574,0 -40.848,18.274 -40.848,40.848 0,22.574 18.273,40.848 40.848,40.848 22.573,0 40.847,-18.273 40.847,-40.848 z m 575.951,161.886 c 0,-137.162 -111.149,-248.525 -248.525,-248.525 -137.161,0 -248.525,111.147 -248.525,248.525 0,137.161 111.149,248.524 248.525,248.524 137.162,-0.213 248.525,-111.363 248.525,-248.524 z" /></g></g></svg>