<?xml version="1.0" encoding="iso-8859-1"?>
<!-- Generator: Adobe Illustrator 18.0.0, SVG Export Plug-In . SVG Version: 6.00 Build 0)  -->
<!DOCTYPE svg PUBLIC "-//W3C//DTD SVG 1.1//EN" "http://www.w3.org/Graphics/SVG/1.1/DTD/svg11.dtd">
<svg version="1.1" id="Capa_1" xmlns="http://www.w3.org/2000/svg" xmlns:xlink="http://www.w3.org/1999/xlink" x="0px" y="0px"
	 viewBox="0 0 284.529 284.529" style="enable-background:new 0 0 284.529 284.529;" xml:space="preserve">
<g>
	<path d="M113.681,162.019c0.246-0.428,0.245-0.955-0.002-1.382l-23.586-40.634c-0.265-0.456-0.765-0.722-1.29-0.685
		c-0.526,0.037-0.985,0.37-1.183,0.858c-2.77,6.825-4.298,14.281-4.298,22.089c0,6.04,0.915,11.871,2.611,17.361
		c0.567,1.834,2.265,3.085,4.184,3.085h22.368C112.979,162.711,113.435,162.447,113.681,162.019z"/>
	<path d="M140.415,108.372h47.306c0.527,0,1.008-0.301,1.239-0.775c0.231-0.474,0.173-1.038-0.151-1.454
		c-8.282-10.648-20.132-18.39-33.737-21.417c-1.876-0.417-3.803,0.434-4.755,2.104l-11.102,19.477
		c-0.244,0.427-0.241,0.952,0.006,1.377C139.469,108.111,139.923,108.372,140.415,108.372z"/>
	<path d="M194.412,121.818h-22.368c-0.494,0-0.95,0.264-1.196,0.692c-0.246,0.428-0.245,0.955,0.002,1.382l23.586,40.635
		c0.265,0.456,0.765,0.722,1.29,0.685c0.526-0.037,0.985-0.37,1.183-0.858c2.77-6.825,4.298-14.281,4.298-22.088
		c0-6.041-0.915-11.872-2.611-17.363C198.03,123.069,196.331,121.818,194.412,121.818z"/>
	<path d="M109.628,126.875c0.248,0.427,0.705,0.689,1.199,0.688c0.494-0.002,0.949-0.268,1.194-0.697l23.317-40.906
		c0.261-0.458,0.238-1.024-0.058-1.459c-0.296-0.435-0.814-0.665-1.336-0.591c-13.754,1.952-25.996,8.666-34.994,18.418
		c-1.303,1.412-1.535,3.505-0.571,5.167L109.628,126.875z"/>
	<path d="M144.114,176.157h-19.406c-0.002,0-0.005,0-0.007,0s-0.005,0-0.007,0H96.807c-0.527,0-1.008,0.301-1.239,0.775
		c-0.231,0.473-0.173,1.038,0.151,1.454c8.282,10.649,20.132,18.39,33.738,21.417c1.876,0.417,3.803-0.434,4.755-2.104
		l11.102-19.477c0.244-0.427,0.241-0.952-0.006-1.377C145.061,176.418,144.606,176.157,144.114,176.157z"/>
	<path d="M259.779,0H24.75C11.081,0,0,11.081,0,24.75v235.029c0,13.669,11.081,24.75,24.75,24.75h235.029
		c13.669,0,24.75-11.081,24.75-24.75V24.75C284.529,11.081,273.448,0,259.779,0z M142.263,252.049
		c-60.534,0-109.783-49.248-109.783-109.782C32.48,81.73,81.729,32.48,142.263,32.48c60.536,0,109.785,49.25,109.785,109.786
		C252.049,202.801,202.8,252.049,142.263,252.049z M245.049,58.117c-11.044,0-20-8.952-20-20c0-11.047,8.956-20,20-20
		c11.051,0,20,8.953,20,20C265.049,49.165,256.099,58.117,245.049,58.117z"/>
	<path d="M174.902,157.654c-0.248-0.427-0.705-0.689-1.199-0.688c-0.494,0.002-0.949,0.268-1.194,0.697l-23.317,40.905
		c-0.261,0.458-0.238,1.024,0.058,1.459c0.296,0.436,0.814,0.665,1.336,0.591c13.754-1.951,25.996-8.666,34.994-18.417
		c1.303-1.412,1.535-3.505,0.571-5.167L174.902,157.654z"/>
</g>
<g>
</g>
<g>
</g>
<g>
</g>
<g>
</g>
<g>
</g>
<g>
</g>
<g>
</g>
<g>
</g>
<g>
</g>
<g>
</g>
<g>
</g>
<g>
</g>
<g>
</g>
<g>
</g>
<g>
</g>
</svg>
