<?xml version="1.0" encoding="iso-8859-1"?>
<!-- Generator: Adobe Illustrator 19.0.0, SVG Export Plug-In . SVG Version: 6.00 Build 0)  -->
<svg version="1.1" id="Layer_1" xmlns="http://www.w3.org/2000/svg" xmlns:xlink="http://www.w3.org/1999/xlink" x="0px" y="0px"
	 viewBox="0 0 512 512" style="enable-background:new 0 0 512 512;" xml:space="preserve">
<g>
	<g>
		<path d="M256,42.667C138.179,42.667,42.667,138.179,42.667,256S138.179,469.333,256,469.333S469.333,373.821,469.333,256
			S373.821,42.667,256,42.667z M256,430.72c-96.495,0-174.72-78.225-174.72-174.72S159.505,81.28,256,81.28
			c96.446,0.117,174.602,78.273,174.72,174.72C430.72,352.495,352.495,430.72,256,430.72z"/>
	</g>
</g>
<g>
	<g>
		<rect y="234.667" width="192" height="42.667"/>
	</g>
</g>
<g>
	<g>
		<rect x="320" y="234.667" width="192" height="42.667"/>
	</g>
</g>
<g>
	<g>
		<rect x="234.667" y="320" width="42.667" height="192"/>
	</g>
</g>
<g>
	<g>
		<rect x="234.667" width="42.667" height="192"/>
	</g>
</g>
<g>
</g>
<g>
</g>
<g>
</g>
<g>
</g>
<g>
</g>
<g>
</g>
<g>
</g>
<g>
</g>
<g>
</g>
<g>
</g>
<g>
</g>
<g>
</g>
<g>
</g>
<g>
</g>
<g>
</g>
</svg>
