<?xml version="1.0" encoding="utf-8"?>
<!-- Generator: Adobe Illustrator 19.2.1, SVG Export Plug-In . SVG Version: 6.00 Build 0)  -->
<svg version="1.1" id="Capa_1" xmlns="http://www.w3.org/2000/svg" xmlns:xlink="http://www.w3.org/1999/xlink" x="0px" y="0px"
	 viewBox="0 0 95 95" style="enable-background:new 0 0 95 95;" xml:space="preserve">
<style type="text/css">
	.st0{fill:#FFFFFF;}
</style>
<g>
	<g>
		<path class="st0" d="M93.2,23.5c-1.1-0.5-2.4-0.3-3.3,0.5L71.5,39.8V21.8c0-1.8-1.4-3.2-3.2-3.2H3.2C1.4,18.5,0,20,0,21.8v51.5
			c0,1.8,1.4,3.2,3.2,3.2h65.1c1.8,0,3.2-1.4,3.2-3.2V55.2l18.4,15.8c0.9,0.8,2.2,1,3.3,0.5c1.1-0.5,1.8-1.6,1.8-2.8V26.4
			C95,25.1,94.3,24,93.2,23.5z"/>
	</g>
</g>
</svg>
