<?xml version="1.0" encoding="UTF-8" standalone="no"?>
<!-- Generator: Adobe Illustrator 16.0.0, SVG Export Plug-In . SVG Version: 6.00 Build 0)  -->

<svg
   xmlns:dc="http://purl.org/dc/elements/1.1/"
   xmlns:cc="http://creativecommons.org/ns#"
   xmlns:rdf="http://www.w3.org/1999/02/22-rdf-syntax-ns#"
   xmlns:svg="http://www.w3.org/2000/svg"
   xmlns="http://www.w3.org/2000/svg"
   xmlns:sodipodi="http://sodipodi.sourceforge.net/DTD/sodipodi-0.dtd"
   xmlns:inkscape="http://www.inkscape.org/namespaces/inkscape"
   version="1.1"
   id="Capa_1"
   x="0px"
   y="0px"
   width="430.117px"
   height="430.117px"
   viewBox="0 0 430.117 430.117"
   enable-background="new 0 0 430.117 430.117"
   xml:space="preserve"
   inkscape:version="0.91 r13725"
   sodipodi:docname="video speed-checked.svg"><metadata
     id="metadata21"><rdf:RDF><cc:Work
         rdf:about=""><dc:format>image/svg+xml</dc:format><dc:type
           rdf:resource="http://purl.org/dc/dcmitype/StillImage" /><dc:title /></cc:Work></rdf:RDF></metadata><defs
     id="defs19" /><sodipodi:namedview
     pagecolor="#ffffff"
     bordercolor="#666666"
     borderopacity="1"
     objecttolerance="10"
     gridtolerance="10"
     guidetolerance="10"
     inkscape:pageopacity="0"
     inkscape:pageshadow="2"
     inkscape:window-width="1920"
     inkscape:window-height="1018"
     id="namedview17"
     showgrid="false"
     inkscape:zoom="0.54868791"
     inkscape:cx="-672.51345"
     inkscape:cy="215.0585"
     inkscape:window-x="1272"
     inkscape:window-y="-8"
     inkscape:window-maximized="1"
     inkscape:current-layer="Capa_1" /><g
     id="g3"
     style="fill:#40a7c3;fill-opacity:1"><path
       id="path15"
       style="fill:#40a7c3;fill-opacity:1"
       d="m 4.2,171.972 0,-38.652 88.42,0 c -1.188,5.87 -1.814,11.94 -1.814,18.156 0,7.044 0.803,13.905 2.317,20.496 l -70.686,0.001 -18.237,0 z m 96.259,-60.073 -55.987,0 0,-38.653 91.313,0 c -15.212,9.212 -27.544,22.646 -35.326,38.653 z m -0.504,80.966 c 7.945,16.082 20.485,29.525 35.924,38.652 l -91.406,0 0,-38.652 55.482,0 z m 106.509,92.364 -123.239,0 0,-38.651 135.229,0 z m -17.304,53.665 -53.281,0 0,-38.652 65.27,0 z m 55.059,-108.475 -36.496,116.453 133.624,0 0,-36.684 90.923,27.115 0,-104.52 -90.918,24.422 0,-26.787 2.386,0 0,-0.029 c 43.229,-0.635 78.06,-35.572 78.06,-78.572 0,-43.375 -35.474,-78.572 -79.261,-78.572 -39.818,0 -72.756,29.099 -78.409,67.013 l -2.541,0 c -5.621,-37.915 -38.557,-67.013 -78.381,-67.013 -43.781,0 -79.287,35.195 -79.287,78.572 0,43.404 35.505,78.601 79.287,78.601 0.059,0 0.12,0 0.177,0 l 60.836,0 z M 203.96,151.818 c 0,12.279 -9.997,22.222 -22.354,22.222 -12.394,0 -22.421,-9.943 -22.421,-22.222 0,-12.252 10.033,-22.192 22.421,-22.192 12.358,-0.001 22.354,9.939 22.354,22.192 z m 116.195,0 c 0,-12.252 10.024,-22.192 22.383,-22.192 12.367,0 22.396,9.94 22.396,22.192 0,12.279 -10.028,22.196 -22.396,22.196 -12.355,0 -22.379,-9.917 -22.383,-22.196 z" /></g></svg>