<?xml version="1.0" encoding="utf-8"?>
<!-- Generator: Adobe Illustrator 19.2.1, SVG Export Plug-In . SVG Version: 6.00 Build 0)  -->
<svg version="1.1" id="Capa_1" xmlns="http://www.w3.org/2000/svg" xmlns:xlink="http://www.w3.org/1999/xlink" x="0px" y="0px"
	 viewBox="0 0 30 30" style="enable-background:new 0 0 30 30;" xml:space="preserve">
<style type="text/css">
	.st0{fill:#FFFFFF;}
</style>
<g>
	<path class="st0" d="M25.5,19.1V26H4.5v-6.8h-4V28c0,1.1,0.9,2,2,2h25c1.1,0,2-0.9,2-2v-8.9H25.5z"/>
	<path class="st0" d="M14.6,18.4l-5.8-7c0,0-0.9-0.8,0.1-0.8s3.2,0,3.2,0s0-0.6,0-1.4c0-2.4,0-6.9,0-8.7c0,0-0.1-0.5,0.6-0.5
		c0.8,0,4,0,4.6,0c0.5,0,0.5,0.4,0.5,0.4c0,1.8,0,6.4,0,8.7c0,0.8,0,1.3,0,1.3s1.8,0,3,0c1.2,0,0.3,0.9,0.3,0.9s-4.9,6.5-5.6,7.2
		C15.1,19,14.6,18.4,14.6,18.4z"/>
</g>
</svg>
