<?xml version="1.0" encoding="utf-8"?>
<!-- Generator: Adobe Illustrator 19.2.1, SVG Export Plug-In . SVG Version: 6.00 Build 0)  -->
<svg version="1.1" id="Layer_1" xmlns="http://www.w3.org/2000/svg" xmlns:xlink="http://www.w3.org/1999/xlink" x="0px" y="0px"
	 viewBox="0 0 512 512" style="enable-background:new 0 0 512 512;" xml:space="preserve">
<style type="text/css">
	.st0{fill:#FFFFFF;}
	.st1{fill:#FFFFFF;stroke:#FFFFFF;stroke-width:19;stroke-miterlimit:10;}
</style>
<path class="st0" d="M475.6,299.1l-22.2,95.2c-1.4,5.7-3,13.2-4.8,22.5c-1.7,9.3-3,17-3.8,23.2c-0.9-6.4-2.1-14.1-3.8-23.1
	c-1.7-9-3.1-15.7-4.2-20l-25.4-97.7h-34.9L351.1,397c-1.5,5.2-3.1,12.6-4.8,22.1c-1.7,9.5-2.8,16.5-3.3,21
	c-1.7-12.9-4.6-28.1-8.5-45.7l-22.1-94.3c-8.4,10.8-18.1,20.7-28.9,29.3l36.9,144.1h42l23.5-91.3c1-4.1,2.5-10.8,4.4-20.3
	s3.1-16.4,3.6-20.7c0.3,3.5,1.5,10.4,3.6,20.6s3.6,17,4.5,20.2l23.6,91.6h42.1L512,299.1H475.6z"/>
<path class="st1" d="M349.1,170.1h-15.4C327.5,98.2,270.2,41,198.4,34.8V19.3c0-1.1-0.1-2.2-0.4-3.3V6.4h-25.4v28.3
	C100.7,41,43.5,98.2,37.3,170.1H21.9H9v25.7h11.6c0.4,0.1,0.9,0.1,1.4,0.1h15.4c6.2,71.8,63.4,129.1,135.2,135.3v28.3H198v-9.6
	c0.3-1,0.4-2.1,0.4-3.3v-15.4c71.8-6.2,129.1-63.5,135.3-135.3h15.4c0.8,0,1.6-0.1,2.4-0.2H362v-25.5H349.1z M239.6,182.9
	c0,4.4-0.5,8.7-1.5,12.8l42.3,0h28.2c-6,58.1-52.2,104.4-110.3,110.3v-28.2H198l0.1-42.3c-4,1-8.2,1.5-12.5,1.5
	c-4.5,0-8.8-0.6-12.9-1.6v42.4v10v18.2c-58.1-6-104.4-52.2-110.3-110.3h28.2v-0.1l42.5,0c-1-4.1-1.5-8.3-1.5-12.7
	c0-4.4,0.5-8.7,1.5-12.8H90.5h-9.2h-19c6-58.1,52.2-104.4,110.3-110.3v70.7c4.1-1,8.5-1.6,12.9-1.6c4.4,0,8.6,0.5,12.7,1.5l0.1-42.4
	V59.7c58.1,6,104.4,52.2,110.3,110.3H238C239,174.2,239.6,178.5,239.6,182.9z"/>
</svg>
