<?xml version="1.0" encoding="utf-8"?>
<!-- Generator: Adobe Illustrator 19.2.1, SVG Export Plug-In . SVG Version: 6.00 Build 0)  -->
<svg version="1.1" id="Layer_1" xmlns="http://www.w3.org/2000/svg" xmlns:xlink="http://www.w3.org/1999/xlink" x="0px" y="0px"
	 viewBox="0 0 512 512" style="enable-background:new 0 0 512 512;" xml:space="preserve">
<style type="text/css">
	.st0{fill:#FFFFFF;}
</style>
<path class="st0" d="M334.8,189.7c0-92.4-74.7-167.1-167.1-167.1h-29.5v273.3C79.6,279.2,44.7,218.2,61,159.7
	c2.5-7.9,5.4-16.2,9.3-23.1l-49.2-28C-23.6,189.2,4.9,291,85.5,336.2c16.2,8.8,33.4,15.2,52.1,18.7v116.5h60V353.9
	C276.8,339.6,334.8,270.3,334.8,189.7z M197.6,295.9V83.5c58,16.7,92.9,77.7,75.7,136.2C263,256.5,234.5,285.5,197.6,295.9z"/>
<path class="st0" d="M474.6,301.7l-22.2,95.2c-1.4,5.7-3,13.2-4.8,22.5c-1.7,9.3-3,17-3.8,23.2c-0.9-6.4-2.1-14.1-3.8-23.1
	c-1.7-9-3.1-15.7-4.2-20l-25.4-97.7h-34.9l-25.4,97.7c-1.5,5.2-3.1,12.6-4.8,22.1c-1.7,9.5-2.8,16.5-3.3,21
	c-1.7-12.9-4.6-28.1-8.5-45.7l-22.1-94.3c-8.4,10.8-18.1,20.7-28.9,29.3L319.4,476h42l23.5-91.3c1-4.1,2.5-10.8,4.4-20.3
	c1.9-9.5,3.1-16.4,3.6-20.7c0.3,3.5,1.5,10.4,3.6,20.6c2.1,10.2,3.6,17,4.5,20.2l23.6,91.6h42.1L511,301.7H474.6z"/>
</svg>
