<?xml version="1.0" encoding="utf-8"?>
<!-- Generator: Adobe Illustrator 19.2.1, SVG Export Plug-In . SVG Version: 6.00 Build 0)  -->
<svg version="1.1" id="Layer_1" xmlns="http://www.w3.org/2000/svg" xmlns:xlink="http://www.w3.org/1999/xlink" x="0px" y="0px"
	 viewBox="0 0 512 512" style="enable-background:new 0 0 512 512;" xml:space="preserve">
<style type="text/css">
	.st0{fill:none;stroke:#FFFFFF;stroke-width:35;stroke-miterlimit:10;}
	.st1{fill:#FFFFFF;}
</style>
<polygon class="st0" points="125.9,28.5 125.9,154.8 262.6,154.8 262.6,260.9 369.7,260.9 369.7,28.5 "/>
<rect x="30" y="154" class="st0" width="232.4" height="232.4"/>
<path class="st1" d="M475.6,299.1l-22.2,95.2c-1.4,5.7-3,13.2-4.8,22.5c-1.7,9.3-3,17-3.8,23.2c-0.9-6.4-2.1-14.1-3.8-23.1
	c-1.7-9-3.1-15.7-4.2-20l-25.4-97.7h-34.9L351.1,397c-1.5,5.2-3.1,12.6-4.8,22.1c-1.7,9.5-2.8,16.5-3.3,21
	c-1.7-12.9-4.6-28.1-8.5-45.7l-13.3-56.7h-35.6l34.8,135.8h42l23.5-91.3c1-4.1,2.5-10.8,4.4-20.3c1.9-9.5,3.1-16.4,3.6-20.7
	c0.3,3.5,1.5,10.4,3.6,20.6c2.1,10.2,3.6,17,4.5,20.2l23.6,91.6h42.1L512,299.1H475.6z"/>
</svg>
