<?xml version="1.0" encoding="utf-8"?>
<!-- Generator: Adobe Illustrator 16.0.0, SVG Export Plug-In . SVG Version: 6.00 Build 0)  -->
<!DOCTYPE svg PUBLIC "-//W3C//DTD SVG 1.1//EN" "http://www.w3.org/Graphics/SVG/1.1/DTD/svg11.dtd">
<svg version="1.1" id="Capa_1" xmlns="http://www.w3.org/2000/svg" xmlns:xlink="http://www.w3.org/1999/xlink" x="0px" y="0px"
	 width="30px" height="30px" viewBox="0 0 30 30" enable-background="new 0 0 30 30" xml:space="preserve">
<g>
	<path fill="#FFFFFF" d="M11.513,14.29c3.939,0,7.143-3.205,7.143-7.145S15.452,0,11.513,0S4.369,3.205,4.369,7.145
		C4.369,11.084,7.574,14.29,11.513,14.29z"/>
	<path fill="#FFFFFF" d="M21.658,15.069c-1.242,0-2.406,0.344-3.402,0.94c-0.016,0-0.031-0.002-0.047-0.002H4.816
		c-0.868,0-1.68,0.67-1.849,1.522l-1.234,6.259c-0.16,0.81,0.231,1.83,0.891,2.326C2.834,26.273,7.836,30,11.513,30
		c2.241,0,5.006-1.409,6.842-2.523c0.976,0.563,2.103,0.883,3.304,0.883c3.663,0,6.646-2.979,6.646-6.646
		C28.303,18.051,25.322,15.069,21.658,15.069z M21.658,25.927c-2.322,0-4.213-1.89-4.213-4.213s1.891-4.213,4.213-4.213
		s4.213,1.89,4.213,4.213S23.98,25.927,21.658,25.927z"/>
	<path fill="#FFFFFF" d="M22.488,18.146h-1.574c0,0.754,0,2.732,0,2.732s-1.706,0-2.551,0.003v1.572
		c0.845-0.001,2.551-0.001,2.551-0.001s0,1.979,0,2.732h1.572c0.002-0.756,0.002-2.732,0.002-2.732s1.705,0,2.549,0V20.88
		c-0.844,0-2.549,0-2.549,0S22.484,18.9,22.488,18.146z"/>
</g>
</svg>
