<?xml version="1.0" encoding="utf-8"?>
<!-- Generator: Adobe Illustrator 16.0.0, SVG Export Plug-In . SVG Version: 6.00 Build 0)  -->
<!DOCTYPE svg PUBLIC "-//W3C//DTD SVG 1.1//EN" "http://www.w3.org/Graphics/SVG/1.1/DTD/svg11.dtd">
<svg version="1.1" id="Calque_1" xmlns="http://www.w3.org/2000/svg" xmlns:xlink="http://www.w3.org/1999/xlink" x="0px" y="0px"
	 width="100px" height="100px" viewBox="0 0 100 100" enable-background="new 0 0 100 100" xml:space="preserve">
<path fill="#FFFFFF" d="M86.808,98.55L98.55,86.809c-0.041-0.042-0.078-0.087-0.121-0.127L76.832,65.085
	c-0.114-0.116-0.249-0.195-0.368-0.302c4.249-6.446,6.729-14.163,6.729-22.461c0-22.573-18.298-40.872-40.871-40.872
	C19.749,1.45,1.45,19.749,1.45,42.321s18.298,40.871,40.871,40.871c8.298,0,16.015-2.479,22.459-6.729
	c0.108,0.118,0.188,0.254,0.304,0.368L86.68,98.429C86.722,98.472,86.766,98.509,86.808,98.55z M42.321,69.024
	c-14.747,0-26.702-11.956-26.702-26.703s11.955-26.702,26.702-26.702s26.703,11.955,26.703,26.702S57.068,69.024,42.321,69.024z"/>
</svg>
