<?xml version="1.0" encoding="utf-8"?>
<!-- Generator: Adobe Illustrator 16.0.0, SVG Export Plug-In . SVG Version: 6.00 Build 0)  -->
<!DOCTYPE svg PUBLIC "-//W3C//DTD SVG 1.1//EN" "http://www.w3.org/Graphics/SVG/1.1/DTD/svg11.dtd">
<svg version="1.1" id="Capa_1" xmlns="http://www.w3.org/2000/svg" xmlns:xlink="http://www.w3.org/1999/xlink" x="0px" y="0px"
	 width="93.029px" height="93.029px" viewBox="0 0 93.029 93.029" enable-background="new 0 0 93.029 93.029" xml:space="preserve">
<g>
	<path fill="#FFFFFF" d="M86.213,0H28.073c-0.64,0-1.209,0.289-1.601,0.735l0,0c-0.329,0.375-0.537,0.861-0.537,1.402v18.299h-8.49
		c-0.639,0-1.207,0.291-1.6,0.736v0.002c-0.33,0.373-0.537,0.861-0.537,1.4v18.301H6.816c-0.639,0-1.208,0.289-1.6,0.735l0,0
		c-0.329,0.375-0.537,0.861-0.537,1.402v47.878c0,1.179,0.958,2.138,2.137,2.138h58.142c1.179,0,2.138-0.959,2.138-2.138v-18.3
		h8.491c1.178,0,2.137-0.957,2.137-2.137V52.155h8.491c1.179,0,2.137-0.959,2.137-2.138V2.139C88.35,0.959,87.392,0,86.213,0z
		 M62.264,88.006H9.668V53.807h52.595L62.264,88.006L62.264,88.006z M72.892,67.569h-5.798V43.016c0-1.18-0.959-2.139-2.139-2.139
		h-44.66v-7.51h52.596L72.892,67.569L72.892,67.569z M83.52,47.129h-5.798V22.577c0-1.179-0.959-2.14-2.138-2.14H30.925V12.93H83.52
		V47.129z M8.765,40.876H4.679v4.389h4.086V40.876z M67.094,40.877h-4.561v4.325h4.561V40.877z M67.095,88.641h-4.254v4.389h4.254
		V88.641z M8.765,88.641H4.679v4.389h4.086V88.641z M77.723,20.438h-4.242v52.154h4.242V20.438z M19.433,20.437h-4.125v5.234h4.125
		V20.437z M29.848,0h-3.913v4.389h3.913V0z M88.351,0h-4.086v4.389h4.086V0z M88.351,47.876h-4.086v4.278h4.086V47.876z"/>
</g>
</svg>
