<?xml version="1.0" encoding="utf-8"?>
<!-- Generator: Adobe Illustrator 16.0.0, SVG Export Plug-In . SVG Version: 6.00 Build 0)  -->
<!DOCTYPE svg PUBLIC "-//W3C//DTD SVG 1.1//EN" "http://www.w3.org/Graphics/SVG/1.1/DTD/svg11.dtd">
<svg version="1.1" id="Capa_1" xmlns="http://www.w3.org/2000/svg" xmlns:xlink="http://www.w3.org/1999/xlink" x="0px" y="0px"
	 width="477.436px" height="477.434px" viewBox="0 0 477.436 477.434" enable-background="new 0 0 477.436 477.434"
	 xml:space="preserve">
<path fill="#FFFFFF" d="M468.662,202.173c-2.349-1.166-4.942-1.837-7.399-1.837c-21.94,0-41.412-12.878-49.58-32.81
	c-8.335-20.41-2.956-44.209,13.391-59.205c1.469-1.343,2.556-2.948,3.279-4.679c-14.709-20.611-32.698-38.713-53.197-53.565
	c-1.762,0.731-3.396,1.841-4.754,3.345c-14.272,15.807-39.909,21.68-59.722,13.414c-20.608-8.672-33.617-29.563-32.339-51.985
	c0.12-2.021-0.229-3.959-0.938-5.725c-12.584-2.104-25.504-3.217-38.686-3.217c-12.528,0-24.821,1.002-36.814,2.907
	c-0.725,1.727-1.108,3.624-1.043,5.607c0.776,22.203-12.379,42.726-32.789,51.086c-19.573,7.997-45.033,2.167-59.276-13.5
	c-1.337-1.467-2.935-2.555-4.656-3.281C83.331,63.495,65.065,81.6,50.097,102.253c0.729,1.753,1.831,3.378,3.319,4.732
	c16.671,15.096,22.045,39.1,13.39,59.748C58.544,186.419,38.103,199.1,14.708,199.1c-2.032-0.065-3.9,0.262-5.573,0.895
	C7.025,212.59,5.91,225.522,5.91,238.716c0,12.406,0.981,24.58,2.85,36.46c2.448,1.217,5.165,1.912,7.714,1.912
	c20.855-0.531,40.866,12.372,49.272,32.807c8.366,20.411,2.981,44.2-13.393,59.217c-1.463,1.344-2.547,2.948-3.27,4.678
	c14.708,20.613,32.699,38.717,53.201,53.569c1.744-0.734,3.363-1.837,4.717-3.33c14.327-15.843,39.961-21.705,59.692-13.423
	c20.669,8.648,33.672,29.535,32.402,51.966c-0.12,2.024,0.233,3.968,0.945,5.737c12.581,2.103,25.498,3.216,38.676,3.216
	c12.523,0,24.813-1.002,36.801-2.905c0.729-1.731,1.112-3.635,1.045-5.624c-0.801-22.192,12.382-42.717,32.769-51.061
	c19.703-8.048,45.05-2.159,59.301,13.485c1.348,1.468,2.95,2.554,4.673,3.277c20.807-14.766,39.071-32.872,54.037-53.525
	c-0.73-1.755-1.835-3.383-3.331-4.739c-16.668-15.086-22.07-39.1-13.415-59.727c8.136-19.421,27.814-32.46,48.979-32.46l2.963,0.078
	c2.013,0.164,3.975-0.188,5.77-0.926c2.104-12.583,3.217-25.501,3.217-38.683C471.525,226.283,470.54,214.08,468.662,202.173z
	 M357.235,309.499l-60.445-60.447c4.376-10.319,6.688-21.505,6.686-33.049c0-22.605-8.805-43.857-24.792-59.839
	c-15.981-15.982-37.233-24.784-59.834-24.784c-7.543,0-15.051,1.002-22.313,2.979c-3.182,0.867-5.782,3.489-6.63,6.678
	c-0.865,3.259,0.11,6.6,2.657,9.149c0,0,29.842,30.071,39.826,40.054c1.047,1.046,1.044,3.542,0.897,4.44l-0.094,0.657
	c-1.007,10.977-2.946,24.152-4.548,29.216c-0.216,0.213-0.418,0.394-0.638,0.613c-0.229,0.229-0.44,0.451-0.662,0.68
	c-5.131,1.646-18.511,3.609-29.66,4.607l0.002-0.06l-0.501,0.126c-0.089,0.011-0.255,0.022-0.475,0.022
	c-1.205,0-2.978-0.337-4.589-1.946c-10.394-10.393-39.064-38.859-39.064-38.859c-2.573-2.563-5.211-3.103-6.97-3.103
	c-4.099,0-7.769,2.962-8.924,7.21c-7.893,29.208,0.475,60.626,21.841,81.995c15.986,15.984,37.24,24.787,59.846,24.787
	c11.544,0,22.73-2.311,33.046-6.687L313,355.042c-21.453,13.727-46.926,21.717-74.283,21.717
	c-76.241,0-138.044-61.802-138.044-138.041c0-76.24,61.805-138.043,138.044-138.043s138.045,61.803,138.045,138.043
	C376.761,264.595,369.627,288.799,357.235,309.499z"/>
</svg>
