<?xml version="1.0" encoding="utf-8"?>
<!-- Generator: Adobe Illustrator 16.0.0, SVG Export Plug-In . SVG Version: 6.00 Build 0)  -->
<!DOCTYPE svg PUBLIC "-//W3C//DTD SVG 1.1//EN" "http://www.w3.org/Graphics/SVG/1.1/DTD/svg11.dtd">
<svg version="1.1" id="Capa_1" xmlns="http://www.w3.org/2000/svg" xmlns:xlink="http://www.w3.org/1999/xlink" x="0px" y="0px"
	 width="100px" height="100px" viewBox="0 0 100 100" enable-background="new 0 0 100 100" xml:space="preserve">
<path fill="none" stroke="#FFFFFF" stroke-width="7.8261" stroke-miterlimit="10" d="M71.78,74.903c-6.682,0-25.41,0-35.596-9.571
	c-9.56-8.971-12.263-21.944-12.263-39.326"/>
<polygon fill="#FFFFFF" points="23.922,20.526 11.849,-0.218 -0.224,20.526 "/>
<polygon fill="#FFFFFF" points="79.547,100.2 100.4,88.19 79.547,76.182 "/>
<polygon fill="#FFFFFF" stroke="#FFFFFF" stroke-width="1.2522" stroke-miterlimit="10" points="92.867,89.125 80.259,82.628 
	80.259,85.704 14.558,85.704 14.558,18.326 17.737,18.326 11.206,5.785 4.674,18.326 7.854,18.326 7.854,85.704 2.551,85.704 
	2.551,92.545 7.854,92.545 7.854,97.541 14.558,97.541 14.558,92.545 80.259,92.545 80.259,95.622 "/>
</svg>
