<?xml version="1.0" encoding="UTF-8" standalone="no"?>
<!-- Generator: Adobe Illustrator 19.2.1, SVG Export Plug-In . SVG Version: 6.00 Build 0)  -->

<svg
   xmlns:dc="http://purl.org/dc/elements/1.1/"
   xmlns:cc="http://creativecommons.org/ns#"
   xmlns:rdf="http://www.w3.org/1999/02/22-rdf-syntax-ns#"
   xmlns:svg="http://www.w3.org/2000/svg"
   xmlns="http://www.w3.org/2000/svg"
   xmlns:sodipodi="http://sodipodi.sourceforge.net/DTD/sodipodi-0.dtd"
   xmlns:inkscape="http://www.inkscape.org/namespaces/inkscape"
   version="1.1"
   id="Calque_1"
   x="0px"
   y="0px"
   viewBox="0 0 74.6 100"
   style="enable-background:new 0 0 74.6 100;"
   xml:space="preserve"
   sodipodi:docname="phi_blue.svg"
   inkscape:version="0.92.4 (5da689c313, 2019-01-14)"><metadata
   id="metadata13"><rdf:RDF><cc:Work
       rdf:about=""><dc:format>image/svg+xml</dc:format><dc:type
         rdf:resource="http://purl.org/dc/dcmitype/StillImage" /><dc:title>phi</dc:title></cc:Work></rdf:RDF></metadata><defs
   id="defs11" /><sodipodi:namedview
   pagecolor="#ffffff"
   bordercolor="#666666"
   borderopacity="1"
   objecttolerance="10"
   gridtolerance="10"
   guidetolerance="10"
   inkscape:pageopacity="0"
   inkscape:pageshadow="2"
   inkscape:window-width="756"
   inkscape:window-height="480"
   id="namedview9"
   showgrid="false"
   inkscape:zoom="2.36"
   inkscape:cx="37.299999"
   inkscape:cy="50"
   inkscape:window-x="2941"
   inkscape:window-y="181"
   inkscape:window-maximized="0"
   inkscape:current-layer="Calque_1" />
<style
   type="text/css"
   id="style2">
	.st0{fill:#FFFFFF;}
</style>
<title
   id="title4">phi</title>
<path
   class="st0"
   d="M71.3,38.4c0-18.8-15.2-34-34-34h-6V60c-11.9-3.4-19-15.8-15.7-27.7c0.5-1.6,1.1-3.3,1.9-4.7l-10-5.7  c-9.1,16.4-3.3,37.1,13.1,46.3c3.3,1.8,6.8,3.1,10.6,3.8v23.7h12.2V71.8C59.5,68.9,71.3,54.8,71.3,38.4z M43.4,60V16.8  c11.8,3.4,18.9,15.8,15.4,27.7C56.7,52,50.9,57.9,43.4,60z"
   id="path6"
   style="fill:#40a7c3;fill-opacity:1" />
</svg>