<?xml version="1.0" encoding="utf-8"?>
<!-- Generator: Adobe Illustrator 16.0.0, SVG Export Plug-In . SVG Version: 6.00 Build 0)  -->
<!DOCTYPE svg PUBLIC "-//W3C//DTD SVG 1.1//EN" "http://www.w3.org/Graphics/SVG/1.1/DTD/svg11.dtd">
<svg version="1.1" id="Calque_1" xmlns="http://www.w3.org/2000/svg" xmlns:xlink="http://www.w3.org/1999/xlink" x="0px" y="0px"
	 width="100px" height="100px" viewBox="0 0 100 100" enable-background="new 0 0 100 100" xml:space="preserve">
<g>
	
		<path fill="none" stroke="#FFFFFF" stroke-width="10.0886" stroke-linecap="round" stroke-linejoin="round" stroke-miterlimit="10" d="
		M50.251,7.75l5.181,6.996C54.325,10.513,52.747,7.75,50.251,7.75z"/>
	
		<path fill="none" stroke="#FFFFFF" stroke-width="10.0886" stroke-linecap="round" stroke-linejoin="round" stroke-miterlimit="10" d="
		M55.432,14.746c1.288,4.925,1.938,11.842,2.646,18.728c2.956,28.75,5.179,53.221,13.498,50.158
		c3.714-1.369,5.521-10.989,7.114-15.774c6.802-20.405,17.725,17.885,31.437,20.745"/>
	
		<path fill="none" stroke="#FFFFFF" stroke-width="10.0886" stroke-linecap="round" stroke-linejoin="round" stroke-miterlimit="10" d="
		M-9.627,88.603c13.711-2.861,24.635-41.151,31.436-20.746c1.595,4.785,3.4,14.405,7.114,15.774
		c8.32,3.063,10.542-21.407,13.499-50.157c0.71-6.886,1.358-13.803,2.646-18.728"/>
	
		<path fill="none" stroke="#FFFFFF" stroke-width="10.0886" stroke-linecap="round" stroke-linejoin="round" stroke-miterlimit="10" d="
		M45.068,14.746l5.181-6.996C47.752,7.75,46.175,10.513,45.068,14.746z"/>
</g>
<g>
</g>
<g>
</g>
<g>
</g>
<g>
</g>
<g>
</g>
<g>
</g>
<g>
</g>
<g>
</g>
<g>
</g>
<g>
</g>
<g>
</g>
<g>
</g>
<g>
</g>
<g>
</g>
<g>
</g>
</svg>
