<?xml version="1.0" encoding="utf-8"?>
<!-- Generator: Adobe Illustrator 16.0.0, SVG Export Plug-In . SVG Version: 6.00 Build 0)  -->
<!DOCTYPE svg PUBLIC "-//W3C//DTD SVG 1.1//EN" "http://www.w3.org/Graphics/SVG/1.1/DTD/svg11.dtd">
<svg version="1.1" id="Capa_1" xmlns="http://www.w3.org/2000/svg" xmlns:xlink="http://www.w3.org/1999/xlink" x="0px" y="0px"
	 width="100px" height="100px" viewBox="0 0 100 100" enable-background="new 0 0 100 100" xml:space="preserve">
<path fill="#FFFFFF" d="M91.009,36.281L74.191,43.97c1.582,3.46,2.384,7.165,2.384,11.012c0,14.627-11.899,26.525-26.527,26.525
	c-14.627,0-26.604-11.898-26.604-26.525c0-12.903,9.345-23.679,21.365-26.042v10.958l34.032-19.95L44.809,0v10.25
	C22.62,12.772,4.953,31.869,4.953,54.982C4.953,79.805,25.187,100,50.01,100c24.823,0,45.037-20.195,45.037-45.018
	C95.047,48.463,93.701,42.172,91.009,36.281z"/>
</svg>
