<?xml version="1.0" encoding="utf-8"?>
<!-- Generator: Adobe Illustrator 16.0.0, SVG Export Plug-In . SVG Version: 6.00 Build 0)  -->
<!DOCTYPE svg PUBLIC "-//W3C//DTD SVG 1.1//EN" "http://www.w3.org/Graphics/SVG/1.1/DTD/svg11.dtd">
<svg version="1.1" id="Capa_1" xmlns="http://www.w3.org/2000/svg" xmlns:xlink="http://www.w3.org/1999/xlink" x="0px" y="0px"
	 width="100px" height="100px" viewBox="0 0 100 100" enable-background="new 0 0 100 100" xml:space="preserve">
<g>
	<path fill="#FFFFFF" d="M86.209,87.93H1.703C0.755,87.93,0,87.168,0,86.234V25.88c0-0.934,0.755-1.703,1.703-1.703h37.811
		c0.799,0,1.495,0.576,1.645,1.375c0.171,0.791-0.262,1.575-0.995,1.896l-0.277,0.099c-0.383,0.171-0.784,0.343-1.189,0.521
		c-6.399,2.84-11.669,6.56-15.698,11.016c-0.328,0.35-0.777,0.562-1.262,0.562h-6.269v32.812h56.978v-8.376
		c0-0.555,0.271-1.091,0.74-1.411l12.076-8.132c0.516-0.344,1.188-0.379,1.739-0.084c0.556,0.3,0.896,0.868,0.896,1.495v30.284
		C87.9,87.168,87.146,87.93,86.209,87.93z"/>
	<path fill="#FFFFFF" d="M62.148,64.141c-0.271,0-0.557-0.06-0.808-0.188c-0.547-0.291-0.89-0.875-0.89-1.494V48.328
		c-5.721,0.029-10.418,0.284-14.364,0.748c-18.86,2.25-23.896,13.561-24.1,14.04c-0.313,0.747-1.105,1.166-1.896,1.002
		c-0.784-0.164-1.36-0.853-1.36-1.658c0-28.524,33.938-34.559,41.703-35.562V13.766c0-0.612,0.344-1.203,0.903-1.488
		c0.55-0.299,1.22-0.27,1.739,0.084L99.25,36.707c0.473,0.321,0.748,0.846,0.748,1.411s-0.275,1.09-0.748,1.396L63.1,63.866
		C62.805,64.049,62.484,64.141,62.148,64.141z"/>
</g>
</svg>
