<?xml version="1.0" encoding="utf-8"?>
<!-- Generator: Adobe Illustrator 22.1.0, SVG Export Plug-In . SVG Version: 6.00 Build 0)  -->
<svg version="1.1" id="Calque_1" xmlns="http://www.w3.org/2000/svg" xmlns:xlink="http://www.w3.org/1999/xlink" x="0px" y="0px"
	 viewBox="0 0 77.6 77.6" style="enable-background:new 0 0 77.6 77.6;" xml:space="preserve">
<style type="text/css">
	.st0{fill:#FFFFFF;}
</style>
<title>R select</title>
<g>
	<g>
		<g>
			<rect x="6.8" y="25.2" class="st0" width="6" height="10"/>
			<polygon class="st0" points="6.8,17.2 12.8,17.2 12.8,13.2 16.8,13.2 16.8,7.2 6.8,7.2 			"/>
			<rect x="24.8" y="7.2" class="st0" width="10" height="6"/>
			<rect x="42.8" y="7.2" class="st0" width="10" height="6"/>
			<polygon class="st0" points="60.8,7.2 60.8,13.2 64.8,13.2 64.8,17.2 70.8,17.2 70.8,7.2 			"/>
			<rect x="64.8" y="25.2" class="st0" width="6" height="10"/>
			<rect x="64.8" y="42.4" class="st0" width="6" height="10"/>
			<polygon class="st0" points="64.8,64.4 60.8,64.4 60.8,70.4 70.8,70.4 70.8,60.4 64.8,60.4 			"/>
			<rect x="42.8" y="64.4" class="st0" width="10" height="6"/>
			<rect x="24.8" y="64.4" class="st0" width="10" height="6"/>
			<polygon class="st0" points="12.8,60.4 6.8,60.4 6.8,70.4 16.8,70.4 16.8,64.4 12.8,64.4 			"/>
			<rect x="6.8" y="42.4" class="st0" width="6" height="10"/>
		</g>
	</g>
</g>
</svg>
