<?xml version="1.0" encoding="iso-8859-1"?>
<!-- Generator: Adobe Illustrator 19.0.0, SVG Export Plug-In . SVG Version: 6.00 Build 0)  -->
<svg version="1.1" id="Layer_1" xmlns="http://www.w3.org/2000/svg" xmlns:xlink="http://www.w3.org/1999/xlink" x="0px" y="0px"
	 viewBox="0 0 490.2 490.2" style="enable-background:new 0 0 490.2 490.2;" xml:space="preserve">
<g>
	<g>
		<g>
			<path d="M245,142.8c-56.5,0-102.4,45.8-102.4,102.4c0,56.6,45.9,102.4,102.4,102.4s102.4-45.8,102.4-102.4
				C347.4,188.7,301.6,142.8,245,142.8z M251.7,268.3l-20.2,20.1l-20.1-20.2L192,248.7l20.2-20.1l19.4,19.5L278,202l20.1,20.2
				L251.7,268.3z"/>
			<path d="M472.3,227.2h-21.4C442.3,127.4,362.8,47.9,263,39.3V17.9C263,8,255,0,245.1,0c-9.9,0-17.9,8-17.9,17.9v21.4
				c-99.8,8.6-179.3,88.1-187.9,187.9H17.9c-9.9,0-17.9,8-17.9,17.9C0,255,8,263,17.9,263h21.4c8.6,99.8,88.1,179.3,187.9,187.9
				v21.4c0,9.9,8,17.9,17.9,17.9c9.9,0,17.9-8,17.9-17.9v-21.4c99.8-8.6,179.3-88.1,187.9-187.9h21.4c9.9,0,17.9-8,17.9-17.9
				C490.2,235.2,482.2,227.2,472.3,227.2z M416,262.9c-8.3,80.7-72.5,144.9-153.2,153.2v-39.2h-35.7v39.2
				c-80.7-8.3-144.9-72.5-153.2-153.2h39.2v-35.7H73.9C82.2,146.5,146.4,82.3,227.1,74v39.2h35.7V74
				c80.7,8.3,144.9,72.5,153.2,153.2h-39.2v35.7H416z"/>
		</g>
	</g>
</g>
<g>
</g>
<g>
</g>
<g>
</g>
<g>
</g>
<g>
</g>
<g>
</g>
<g>
</g>
<g>
</g>
<g>
</g>
<g>
</g>
<g>
</g>
<g>
</g>
<g>
</g>
<g>
</g>
<g>
</g>
</svg>
