<?xml version="1.0" encoding="utf-8"?>
<!-- Generator: Adobe Illustrator 16.0.0, SVG Export Plug-In . SVG Version: 6.00 Build 0)  -->
<!DOCTYPE svg PUBLIC "-//W3C//DTD SVG 1.1//EN" "http://www.w3.org/Graphics/SVG/1.1/DTD/svg11.dtd">
<svg version="1.1" id="Capa_1" xmlns="http://www.w3.org/2000/svg" xmlns:xlink="http://www.w3.org/1999/xlink" x="0px" y="0px"
	 width="430.117px" height="430.117px" viewBox="0 0 430.117 430.117" enable-background="new 0 0 430.117 430.117"
	 xml:space="preserve">
<g>
	<path fill="#FFFFFF" d="M244.219,230.419l-36.496,116.453h133.624v-36.684l90.923,27.115v-104.52l-90.918,24.422v-26.787h2.386
		v-0.029c43.229-0.635,78.06-35.572,78.06-78.572c0-43.375-35.474-78.572-79.261-78.572c-39.818,0-72.756,29.099-78.409,67.013
		h-2.541c-5.621-37.915-38.557-67.013-78.381-67.013c-43.781,0-79.287,35.195-79.287,78.572c0,43.404,35.505,78.601,79.287,78.601
		c0.059,0,0.12,0,0.177,0H244.219z M203.96,151.818c0,12.279-9.997,22.222-22.354,22.222c-12.394,0-22.421-9.943-22.421-22.222
		c0-12.252,10.033-22.192,22.421-22.192C193.964,129.625,203.96,139.565,203.96,151.818z M320.155,151.818
		c0-12.252,10.024-22.192,22.383-22.192c12.367,0,22.396,9.94,22.396,22.192c0,12.279-10.028,22.196-22.396,22.196
		C330.183,174.014,320.159,164.097,320.155,151.818z"/>
	<polygon fill="#FFFFFF" points="189.16,338.894 135.879,338.894 135.879,300.242 201.149,300.242 	"/>
	<polygon fill="#FFFFFF" points="206.464,285.229 83.225,285.229 83.225,246.578 218.454,246.578 	"/>
	<path fill="#FFFFFF" d="M99.955,192.865c7.945,16.082,20.485,29.525,35.924,38.652H44.473v-38.652H99.955z"/>
	<path fill="#FFFFFF" d="M100.459,111.899H44.472V73.246h91.313C120.573,82.458,108.241,95.892,100.459,111.899z"/>
	<path fill="#FFFFFF" d="M4.2,171.972v-38.652H92.62c-1.188,5.87-1.814,11.94-1.814,18.156c0,7.044,0.803,13.905,2.317,20.496
		l-70.686,0.001H4.2z"/>
</g>
</svg>
