<?xml version="1.0" encoding="utf-8"?>
<!-- Generator: Adobe Illustrator 19.2.1, SVG Export Plug-In . SVG Version: 6.00 Build 0)  -->
<svg version="1.1" id="Capa_1" xmlns="http://www.w3.org/2000/svg" xmlns:xlink="http://www.w3.org/1999/xlink" x="0px" y="0px"
	 viewBox="0 0 430.1 430.1" style="enable-background:new 0 0 430.1 430.1;" xml:space="preserve">
<style type="text/css">
	.st0{fill:#FFFFFF;}
</style>
<g>
	<path id="Viddler" class="st0" d="M326.3,241.7c57.3,0,103.9-46.1,103.9-103c0-56.8-46.5-102.9-103.9-102.9
		c-52.2,0-95.3,38.1-102.7,87.8h-3.3c-7.4-49.7-50.6-87.8-102.7-87.8c-57.4,0-103.8,46.1-103.8,102.9c0,56.3,45.6,102.1,102.3,102.9
		v0h3.1v35.1L0,244.8v136.9l119.1-35.5v48.1h175l-51.3-152.5H326C326.1,241.7,326.2,241.7,326.3,241.7z M117.5,167.8
		c-16.2,0-29.3-13-29.3-29.1c0-16.1,13.1-29.1,29.3-29.1c16.2,0,29.3,13,29.3,29.1C146.9,154.9,133.7,167.8,117.5,167.8z
		 M299.1,138.8c0-16.1,13.1-29.1,29.3-29.1c16.2,0,29.4,13,29.4,29.1c0,16.1-13.1,29.1-29.4,29.1
		C312.2,167.9,299.1,154.9,299.1,138.8z"/>
</g>
</svg>
