<?xml version="1.0" encoding="iso-8859-1"?>
<!DOCTYPE svg PUBLIC "-//W3C//DTD SVG 1.1//EN" "http://www.w3.org/Graphics/SVG/1.1/DTD/svg11.dtd">
<svg xmlns="http://www.w3.org/2000/svg" xmlns:xlink="http://www.w3.org/1999/xlink" version="1.1" viewBox="0 0 297 297" enable-background="new 0 0 297 297" width="512px" height="512px">
  <g>
    <path d="m47.383,90.724c18.456,0 33.47-15.015 33.47-33.47s-15.015-33.471-33.47-33.471-33.471,15.015-33.471,33.471 15.015,33.47 33.471,33.47z" fill="#FFFFFF"/>
    <path d="m17.21,129.172v62.716c0,15.966 12.943,28.908 28.908,28.908h37.675v67.604c0,3.911 3.171,7.082 7.082,7.082h33.384c3.911,0 7.082-3.171 7.082-7.082v-90.32c0-13.477-10.925-24.402-24.402-24.402h-29.384v-44.505c0-16.664-13.509-30.173-30.172-30.173-16.664,0-30.173,13.509-30.173,30.172z" fill="#FFFFFF"/>
    <path d="m194.916,100.048c1.048,0.42 2.128,0.617 3.191,0.617 3.412,0 6.642-2.045 7.987-5.407l33.384-83.461c1.764-4.41-0.38-9.414-4.79-11.178-4.412-1.768-9.414,0.38-11.177,4.789l-33.385,83.462c-1.764,4.41 0.381,9.414 4.79,11.178z" fill="#FFFFFF"/>
    <path d="m191.028,134.047h33.384c4.749,0 8.599-3.85 8.599-8.599v-50.076c0-4.749-3.85-8.599-8.599-8.599s-8.599,3.85-8.599,8.599v41.478h-24.785c-4.749,0-8.599,3.85-8.599,8.599s3.85,8.598 8.599,8.598z" fill="#FFFFFF"/>
    <path d="M265.89,288.401c0,4.749,3.85,8.599,8.599,8.599s8.599-3.85,8.599-8.599V198H265.89V288.401z" fill="#FFFFFF"/>
    <path d="m274.489,146.946h-116.845c-4.749,0-8.599,3.85-8.599,8.599v25.955h134.044v-25.955c-0.001-4.749-3.851-8.599-8.6-8.599z" fill="#FFFFFF"/>
    <path d="M149.045,288.401c0,4.749,3.85,8.599,8.599,8.599s8.599-3.85,8.599-8.599V198h-17.198V288.401z" fill="#FFFFFF"/>
  </g>
</svg>
