<?xml version="1.0" encoding="utf-8"?>
<!-- Generator: Adobe Illustrator 19.2.1, SVG Export Plug-In . SVG Version: 6.00 Build 0)  -->
<svg version="1.1" id="Layer_1" xmlns="http://www.w3.org/2000/svg" xmlns:xlink="http://www.w3.org/1999/xlink" x="0px" y="0px"
	 viewBox="0 0 512 512" style="enable-background:new 0 0 512 512;" xml:space="preserve">
<style type="text/css">
	.st0{fill:#FFFFFF;}
</style>
<g>
	<g>
		<path class="st0" d="M415,476h-91.1l-51.1-198.2c-1.9-7.1-5.1-21.6-9.7-43.7c-4.6-22.1-7.2-36.9-7.9-44.5
			c-1,9.3-3.6,24.2-7.7,44.8c-4.1,20.6-7.3,35.2-9.5,44L187.1,476H96.3L0,98.7h78.7L127,304.6c8.4,38,14.5,71,18.3,98.8
			c1-9.8,3.4-25,7.1-45.6c3.7-20.6,7.2-36.5,10.5-47.9l55-211.4h75.6l55,211.4c2.4,9.5,5.4,23.9,9,43.4c3.6,19.4,6.4,36.1,8.3,50.1
			c1.7-13.4,4.5-30.2,8.3-50.2c3.8-20,7.2-36.3,10.3-48.6l48-205.9H511L415,476z"/>
	</g>
</g>
</svg>
