<?xml version="1.0" encoding="utf-8"?>
<!-- Generator: Adobe Illustrator 19.2.1, SVG Export Plug-In . SVG Version: 6.00 Build 0)  -->
<svg version="1.1" id="Calque_1" xmlns="http://www.w3.org/2000/svg" xmlns:xlink="http://www.w3.org/1999/xlink" x="0px" y="0px"
	 viewBox="0 0 297.5 123.9" style="enable-background:new 0 0 297.5 123.9;" xml:space="preserve">
<style type="text/css">
	.st0{fill:#FFFFFF;}
	.st1{fill:#40A7C3;}
</style>
<g>
	<path class="st0" d="M164.5,24.5v42.6h-43.6c-6.2,0-11.2-5-11.2-11.2V36.3h47.2V24.5c0-1.9-1.6-3.6-3.6-3.6h-43.5v-7.6h43.5
		C159.5,13.2,164.5,18.2,164.5,24.5z M156.8,44h-39.5v11.9c0,2,1.7,3.6,3.6,3.6h35.9V44z"/>
	<path class="st0" d="M297.5,24.5V44h-47.3v11.9c0,2,1.7,3.6,3.6,3.6h43.6v7.6h-43.6c-6.2,0-11.2-5-11.2-11.2V24.5
		c0-6.2,5-11.2,11.2-11.2h32.3C292.5,13.2,297.5,18.2,297.5,24.5z M289.8,36.3V24.5c0-1.9-1.6-3.6-3.6-3.6h-32.3
		c-1.9,0-3.6,1.7-3.6,3.6v11.9H289.8z"/>
	<path class="st1" d="M228.7,13.1l-25.3,46.4L170.8,0h-0.3H95.3l0,0h-0.2c-5.9,16.6-13.6,37.2-19.4,53.7L56.2,0h-9.1
		c-6,16.6-13.6,37.2-19.5,53.7L8,0H0l24.3,67h6.5L51.6,9.9L72.4,67H79l21.7-59.1h65.6c10,18.4,24.1,43.3,32.7,59.1h8.8l29.8-53.8
		H228.7z"/>
</g>
<g>
	<path class="st0" d="M172.6,80.4h5.7c-8.6,15-16.5,28.5-25.1,43.4h-5.7c-8.4-14.6-16.8-28.8-25.2-43.4h5.7l22.3,38.7L172.6,80.4z"
		/>
	<path class="st0" d="M188.8,77.4v4.9h-4.9v-4.9H188.8z M183.9,88.9h4.9v35h-4.9V88.9z"/>
	<path class="st0" d="M232,96.2v12.7h-30.7v7.7c0,1.3,1.1,2.4,2.4,2.4H232v4.9h-28.4c-4,0-7.3-3.3-7.3-7.3V96.2c0-4,3.3-7.3,7.3-7.3
		h21C228.8,88.9,232,92.1,232,96.2z M227,103.9v-7.7c0-1.3-1-2.4-2.4-2.4h-21c-1.3,0-2.4,1.1-2.4,2.4v7.7H227z"/>
	<path class="st1" d="M296.3,88.9l-13.2,35h-4.3l-13-28.9l-12.4,28.9h-4.3c-4.7-11.9-9.1-23.2-13.8-35h5.3l10.6,26.1l11.3-26.1h6.5
		l12,26l9.9-26H296.3z"/>
</g>
</svg>
